<?xml version="1.0" encoding="UTF-8"?>
<!DOCTYPE svg PUBLIC "-//W3C//DTD SVG 1.1//EN" "http://www.w3.org/Graphics/SVG/1.1/DTD/svg11.dtd">
<svg xmlns="http://www.w3.org/2000/svg" version="1.1" width="500px" height="500px" style="shape-rendering:geometricPrecision; text-rendering:geometricPrecision; image-rendering:optimizeQuality; fill-rule:evenodd; clip-rule:evenodd" xmlns:xlink="http://www.w3.org/1999/xlink">
<g><path style="opacity:0.929" fill="#bdc97d" d="M 239.5,109.5 C 238.9,110.9 237.9,111.9 236.5,112.5C 234.565,113.15 232.565,113.483 230.5,113.5C 233.088,111.408 236.088,110.075 239.5,109.5 Z"/></g>
<g><path style="opacity:1" fill="#bbd3a1" d="M 270.5,113.5 C 266.147,112.53 261.814,111.363 257.5,110C 252.511,109.501 247.511,109.334 242.5,109.5C 244.984,108.631 247.651,107.964 250.5,107.5C 255.963,108.16 261.296,109.327 266.5,111C 268.066,111.608 269.4,112.442 270.5,113.5 Z"/></g>
<g><path style="opacity:1" fill="#75b16a" d="M 239.5,109.5 C 240.5,109.5 241.5,109.5 242.5,109.5C 247.511,109.334 252.511,109.501 257.5,110C 261.814,111.363 266.147,112.53 270.5,113.5C 270.328,114.492 270.662,115.158 271.5,115.5C 271.53,116.497 271.03,117.164 270,117.5C 268.415,116.956 266.915,116.289 265.5,115.5C 261.031,113.747 256.364,112.413 251.5,111.5C 248.074,111.531 245.074,112.531 242.5,114.5C 241.5,114.5 240.5,114.5 239.5,114.5C 238.71,113.599 237.71,112.932 236.5,112.5C 237.9,111.9 238.9,110.9 239.5,109.5 Z"/></g>
<g><path style="opacity:1" fill="#cbc262" d="M 230.5,113.5 C 228.127,117.023 224.794,119.023 220.5,119.5C 223.494,117 226.827,115 230.5,113.5 Z"/></g>
<g><path style="opacity:1" fill="#8dc89c" d="M 265.5,115.5 C 268.056,119.732 270.556,124.065 273,128.5C 275.792,136.416 278.292,144.416 280.5,152.5C 277.528,150.222 275.861,147.222 275.5,143.5C 274.325,143.719 273.325,143.386 272.5,142.5C 270.289,138.964 267.455,135.964 264,133.5C 263.667,132.5 263.333,131.5 263,130.5C 257.959,125.11 252.125,120.944 245.5,118C 244.837,116.482 243.837,115.315 242.5,114.5C 245.074,112.531 248.074,111.531 251.5,111.5C 256.364,112.413 261.031,113.747 265.5,115.5 Z"/></g>
<g><path style="opacity:1" fill="#cec339" d="M 236.5,112.5 C 237.71,112.932 238.71,113.599 239.5,114.5C 239.5,114.833 239.5,115.167 239.5,115.5C 231.668,117.882 224.335,121.215 217.5,125.5C 215.685,126.63 213.685,127.296 211.5,127.5C 210.662,127.158 210.328,126.492 210.5,125.5C 213.161,122.498 216.495,120.498 220.5,119.5C 224.794,119.023 228.127,117.023 230.5,113.5C 232.565,113.483 234.565,113.15 236.5,112.5 Z"/></g>
<g><path style="opacity:1" fill="#f5e798" d="M 249.5,123.5 C 265.351,138.007 277.684,155.007 286.5,174.5C 287.369,176.717 287.702,179.05 287.5,181.5C 287.19,182.738 286.69,182.738 286,181.5C 283.552,177.385 280.719,173.552 277.5,170C 273.991,167.97 270.658,165.804 267.5,163.5C 268.725,162.848 269.392,161.681 269.5,160C 266.421,150.509 261.421,142.343 254.5,135.5C 252.345,134.59 250.345,133.423 248.5,132C 241.059,131.222 233.726,131.722 226.5,133.5C 226.611,132.883 226.944,132.383 227.5,132C 234.034,130.033 240.701,128.7 247.5,128C 248.267,126.53 248.933,125.03 249.5,123.5 Z"/></g>
<g><path style="opacity:1" fill="#f6e591" d="M 239.5,115.5 C 243.198,117.686 246.532,120.353 249.5,123.5C 248.933,125.03 248.267,126.53 247.5,128C 240.701,128.7 234.034,130.033 227.5,132C 226.944,132.383 226.611,132.883 226.5,133.5C 224.473,133.338 222.473,133.505 220.5,134C 217.978,135.843 215.145,137.01 212,137.5C 210.97,137.836 210.47,138.503 210.5,139.5C 209.5,139.5 208.5,139.5 207.5,139.5C 202.434,142.699 197.101,145.366 191.5,147.5C 192.46,145.539 193.793,143.873 195.5,142.5C 194.975,141.808 194.308,141.308 193.5,141C 196.377,139.873 199.377,139.206 202.5,139C 202.833,138.667 203.167,138.333 203.5,138C 201.833,137.667 200.167,137.333 198.5,137C 204.143,134.02 209.809,131.02 215.5,128C 216.381,127.292 217.047,126.458 217.5,125.5C 224.335,121.215 231.668,117.882 239.5,115.5 Z"/></g>
<g><path style="opacity:1" fill="#bcd496" d="M 239.5,114.5 C 240.5,114.5 241.5,114.5 242.5,114.5C 243.837,115.315 244.837,116.482 245.5,118C 252.125,120.944 257.959,125.11 263,130.5C 263.333,131.5 263.667,132.5 264,133.5C 267.455,135.964 270.289,138.964 272.5,142.5C 273.325,143.386 274.325,143.719 275.5,143.5C 275.861,147.222 277.528,150.222 280.5,152.5C 281.994,156.993 283.66,161.327 285.5,165.5C 285.704,168.518 286.037,171.518 286.5,174.5C 277.684,155.007 265.351,138.007 249.5,123.5C 246.532,120.353 243.198,117.686 239.5,115.5C 239.5,115.167 239.5,114.833 239.5,114.5 Z"/></g>
<g><path style="opacity:1" fill="#fcf0ba" d="M 267.5,163.5 C 266.833,163.5 266.167,163.5 265.5,163.5C 265.167,163.5 264.833,163.5 264.5,163.5C 263.833,162.5 263.167,161.5 262.5,160.5C 263.583,160.539 264.583,160.873 265.5,161.5C 265.833,161 266.167,160.5 266.5,160C 263.168,149.973 257.168,141.973 248.5,136C 235.493,133.801 222.826,134.968 210.5,139.5C 210.47,138.503 210.97,137.836 212,137.5C 215.145,137.01 217.978,135.843 220.5,134C 222.473,133.505 224.473,133.338 226.5,133.5C 233.726,131.722 241.059,131.222 248.5,132C 250.345,133.423 252.345,134.59 254.5,135.5C 261.421,142.343 266.421,150.509 269.5,160C 269.392,161.681 268.725,162.848 267.5,163.5 Z"/></g>
<g><path style="opacity:1" fill="#64b176" d="M 265.5,115.5 C 266.915,116.289 268.415,116.956 270,117.5C 271.03,117.164 271.53,116.497 271.5,115.5C 272.117,115.611 272.617,115.944 273,116.5C 272.879,120.935 274.046,124.935 276.5,128.5C 280.997,143.495 285.331,158.495 289.5,173.5C 287.619,171.07 286.285,168.404 285.5,165.5C 283.66,161.327 281.994,156.993 280.5,152.5C 278.292,144.416 275.792,136.416 273,128.5C 270.556,124.065 268.056,119.732 265.5,115.5 Z"/></g>
<g><path style="opacity:1" fill="#d6c549" d="M 210.5,125.5 C 210.328,126.492 210.662,127.158 211.5,127.5C 193.855,137.99 176.522,148.99 159.5,160.5C 159.48,158.857 160.147,157.524 161.5,156.5C 160.3,155.708 158.967,155.708 157.5,156.5C 174.666,145.413 192.333,135.08 210.5,125.5 Z"/></g>
<g><path style="opacity:1" fill="#fef7de" d="M 180.5,169.5 C 173.555,176.098 166.555,182.431 159.5,188.5C 160.245,185.549 160.412,182.549 160,179.5C 160.779,180.728 161.779,181.728 163,182.5C 166.251,180.594 169.251,178.26 172,175.5C 172.167,175.167 172.333,174.833 172.5,174.5C 171.167,173.833 169.833,173.167 168.5,172.5C 169.99,171.174 171.324,169.674 172.5,168C 171.906,167.536 171.239,167.369 170.5,167.5C 171.291,164.26 173.291,162.094 176.5,161C 175.549,160.282 175.383,159.449 176,158.5C 177.726,159.576 179.559,159.743 181.5,159C 188.674,155.535 195.674,151.535 202.5,147C 206.139,147.278 209.806,147.278 213.5,147C 211.527,146.505 209.527,146.338 207.5,146.5C 207.5,145.5 207.5,144.5 207.5,143.5C 211.164,144 214.164,142.833 216.5,140C 216.167,139.667 215.833,139.333 215.5,139C 225.137,137.586 234.804,136.919 244.5,137C 247.971,138.905 251.304,141.072 254.5,143.5C 256.211,145.24 257.044,147.24 257,149.5C 252.868,148.791 249.535,147.791 247,146.5C 239.461,147.223 231.628,147.557 223.5,147.5C 223.5,148.5 223.5,149.5 223.5,150.5C 215.347,150.215 207.68,151.881 200.5,155.5C 199.96,156.748 199.293,157.915 198.5,159C 194.838,159.11 191.671,160.277 189,162.5C 188.228,162.355 187.561,162.022 187,161.5C 185.723,164.938 183.557,167.605 180.5,169.5 Z"/></g>
<g><path style="opacity:1" fill="#3cab9a" d="M 270.5,113.5 C 280.867,119.011 290.867,125.011 300.5,131.5C 300.557,132.609 300.89,133.609 301.5,134.5C 295.236,131.304 288.903,128.304 282.5,125.5C 281.833,125.833 281.167,126.167 280.5,126.5C 281.677,129.531 283.344,132.198 285.5,134.5C 286.022,137.568 286.855,140.568 288,143.5C 291.181,148.032 294.181,152.699 297,157.5C 297.251,159.433 297.751,161.266 298.5,163C 295.6,163.01 294.934,161.677 296.5,159C 294.639,157.138 293.306,157.638 292.5,160.5C 291.702,158.922 291.202,157.256 291,155.5C 290.768,156.737 290.268,157.737 289.5,158.5C 289.5,158.167 289.5,157.833 289.5,157.5C 288.68,155.86 287.847,154.193 287,152.5C 286.725,155.058 287.225,157.392 288.5,159.5C 288.5,160.167 288.833,160.5 289.5,160.5C 289.646,164.519 289.979,168.519 290.5,172.5C 290.5,173.5 290.5,174.5 290.5,175.5C 290.167,175.5 289.833,175.5 289.5,175.5C 289.5,174.833 289.5,174.167 289.5,173.5C 285.331,158.495 280.997,143.495 276.5,128.5C 274.046,124.935 272.879,120.935 273,116.5C 272.617,115.944 272.117,115.611 271.5,115.5C 270.662,115.158 270.328,114.492 270.5,113.5 Z"/></g>
<g><path style="opacity:1" fill="#74c8b7" d="M 301.5,134.5 C 312.996,140.612 324.329,147.279 335.5,154.5C 337.937,156.433 340.271,158.6 342.5,161C 352.859,166.031 361.359,173.197 368,182.5C 369.543,186.239 371.043,189.906 372.5,193.5C 373.208,208.823 373.541,224.156 373.5,239.5C 372.833,230.5 372.167,221.5 371.5,212.5C 371.813,208.958 371.479,205.625 370.5,202.5C 368.392,191.783 363.725,182.283 356.5,174C 356.833,173.667 357.167,173.333 357.5,173C 353.697,172.613 351.363,170.613 350.5,167C 346.868,165.516 343.534,163.516 340.5,161C 339.101,160.405 337.768,160.572 336.5,161.5C 329.563,157.448 323.063,152.781 317,147.5C 313.182,146.835 309.682,145.502 306.5,143.5C 303.861,141.424 301.194,139.258 298.5,137C 296.481,136.55 294.648,135.717 293,134.5C 292.833,134.833 292.667,135.167 292.5,135.5C 297.463,141.306 302.296,147.306 307,153.5C 307.333,154.833 307.667,156.167 308,157.5C 311.166,159.853 313.333,162.853 314.5,166.5C 313.542,166.953 312.708,167.619 312,168.5C 310.302,165.317 308.135,162.65 305.5,160.5C 299.216,151.548 292.55,142.882 285.5,134.5C 283.344,132.198 281.677,129.531 280.5,126.5C 281.167,126.167 281.833,125.833 282.5,125.5C 288.903,128.304 295.236,131.304 301.5,134.5 Z"/></g>
<g><path style="opacity:1" fill="#65b1a0" d="M 300.5,131.5 C 314.339,139.251 328.006,147.251 341.5,155.5C 339.435,155.483 337.435,155.15 335.5,154.5C 324.329,147.279 312.996,140.612 301.5,134.5C 300.89,133.609 300.557,132.609 300.5,131.5 Z"/></g>
<g><path style="opacity:1" fill="#f7e58d" d="M 217.5,125.5 C 217.047,126.458 216.381,127.292 215.5,128C 209.809,131.02 204.143,134.02 198.5,137C 200.167,137.333 201.833,137.667 203.5,138C 203.167,138.333 202.833,138.667 202.5,139C 199.377,139.206 196.377,139.873 193.5,141C 194.308,141.308 194.975,141.808 195.5,142.5C 193.793,143.873 192.46,145.539 191.5,147.5C 189.821,147.892 188.154,148.392 186.5,149C 180.302,153.263 173.969,157.263 167.5,161C 162.312,165.508 156.978,169.841 151.5,174C 144.985,180.861 138.818,188.027 133,195.5C 130.501,200.157 128.334,204.823 126.5,209.5C 126.5,217.833 126.5,226.167 126.5,234.5C 126.5,236.167 126.5,237.833 126.5,239.5C 125.505,228.346 125.172,217.012 125.5,205.5C 127.336,190.999 134.003,179.166 145.5,170C 150.369,167.071 155.035,163.904 159.5,160.5C 176.522,148.99 193.855,137.99 211.5,127.5C 213.685,127.296 215.685,126.63 217.5,125.5 Z"/></g>
<g><path style="opacity:1" fill="#9ed8ca" d="M 306.5,143.5 C 309.682,145.502 313.182,146.835 317,147.5C 323.063,152.781 329.563,157.448 336.5,161.5C 337.768,160.572 339.101,160.405 340.5,161C 343.534,163.516 346.868,165.516 350.5,167C 351.363,170.613 353.697,172.613 357.5,173C 357.167,173.333 356.833,173.667 356.5,174C 363.725,182.283 368.392,191.783 370.5,202.5C 367.758,198.691 365.258,194.691 363,190.5C 361.377,187.673 360.21,184.673 359.5,181.5C 358.675,180.614 357.675,180.281 356.5,180.5C 355.551,178.263 354.884,175.929 354.5,173.5C 349.195,171.839 343.861,170.172 338.5,168.5C 337.833,167.167 336.833,166.167 335.5,165.5C 332.561,163.589 329.561,161.589 326.5,159.5C 325.169,162.049 326.002,163.716 329,164.5C 329.192,166.577 329.692,168.577 330.5,170.5C 336.914,178.927 341.581,188.26 344.5,198.5C 345.242,199.287 346.075,199.953 347,200.5C 352.3,218.5 356.133,236.833 358.5,255.5C 358.48,256.726 358.147,257.726 357.5,258.5C 357.719,257.325 357.386,256.325 356.5,255.5C 355.139,257.028 353.972,258.695 353,260.5C 352.667,259.833 352.333,259.167 352,258.5C 352.097,246.143 349.597,234.476 344.5,223.5C 342.91,215.676 340.243,208.343 336.5,201.5C 334.289,195.407 331.789,189.407 329,183.5C 324.558,176.951 320.891,169.951 318,162.5C 312.575,156.636 308.742,150.303 306.5,143.5 Z"/></g>
<g><path style="opacity:1" fill="#fdf5cf" d="M 262.5,160.5 C 260.139,160.326 257.806,159.993 255.5,159.5C 255.5,159.167 255.5,158.833 255.5,158.5C 253.611,157.678 251.611,156.845 249.5,156C 238.814,155.321 228.148,155.488 217.5,156.5C 214.881,156.232 212.381,156.565 210,157.5C 207.706,155.47 205.206,155.47 202.5,157.5C 201.754,158.736 201.421,160.07 201.5,161.5C 198.455,161.704 195.621,161.704 193,161.5C 190.861,164.001 188.361,166.168 185.5,168C 183.975,169.009 182.308,169.509 180.5,169.5C 183.557,167.605 185.723,164.938 187,161.5C 187.561,162.022 188.228,162.355 189,162.5C 191.671,160.277 194.838,159.11 198.5,159C 199.293,157.915 199.96,156.748 200.5,155.5C 207.68,151.881 215.347,150.215 223.5,150.5C 223.5,149.5 223.5,148.5 223.5,147.5C 231.628,147.557 239.461,147.223 247,146.5C 249.535,147.791 252.868,148.791 257,149.5C 257.044,147.24 256.211,145.24 254.5,143.5C 251.304,141.072 247.971,138.905 244.5,137C 234.804,136.919 225.137,137.586 215.5,139C 215.833,139.333 216.167,139.667 216.5,140C 214.164,142.833 211.164,144 207.5,143.5C 207.5,142.167 207.5,140.833 207.5,139.5C 208.5,139.5 209.5,139.5 210.5,139.5C 222.826,134.968 235.493,133.801 248.5,136C 257.168,141.973 263.168,149.973 266.5,160C 266.167,160.5 265.833,161 265.5,161.5C 264.583,160.873 263.583,160.539 262.5,160.5 Z"/></g>
<g><path style="opacity:1" fill="#f9e17b" d="M 228.5,157.5 C 231.482,156.835 234.648,156.502 238,156.5C 243.941,156.451 249.775,157.118 255.5,158.5C 255.5,158.833 255.5,159.167 255.5,159.5C 246.623,157.899 237.623,157.232 228.5,157.5 Z"/></g>
<g><path style="opacity:0.01" fill="#cbf3f1" d="M 289.5,157.5 C 288.662,157.842 288.328,158.508 288.5,159.5C 287.225,157.392 286.725,155.058 287,152.5C 287.847,154.193 288.68,155.86 289.5,157.5 Z"/></g>
<g><path style="opacity:1" fill="#fcea9e" d="M 255.5,158.5 C 249.775,157.118 243.941,156.451 238,156.5C 234.648,156.502 231.482,156.835 228.5,157.5C 221.246,157.587 214.246,158.92 207.5,161.5C 205.784,161.629 204.117,161.962 202.5,162.5C 202.611,161.883 202.944,161.383 203.5,161C 208.401,159.802 213.068,158.302 217.5,156.5C 228.148,155.488 238.814,155.321 249.5,156C 251.611,156.845 253.611,157.678 255.5,158.5 Z"/></g>
<g><path style="opacity:0.894" fill="#d6c668" d="M 157.5,156.5 C 156.514,158.408 154.848,159.408 152.5,159.5C 153.659,157.75 155.326,156.75 157.5,156.5 Z"/></g>
<g><path style="opacity:1" fill="#e8c410" d="M 264.5,163.5 C 264.833,163.5 265.167,163.5 265.5,163.5C 266.141,164.482 266.807,165.482 267.5,166.5C 271.019,167.68 274.019,169.68 276.5,172.5C 277.681,174.198 277.681,175.865 276.5,177.5C 270.216,175.36 264.549,172.193 259.5,168C 256.054,167.339 252.721,166.505 249.5,165.5C 247.859,163.742 245.859,162.242 243.5,161C 244.667,160.833 245.833,160.667 247,160.5C 252.834,161.585 258.667,162.585 264.5,163.5 Z"/></g>
<g><path style="opacity:1" fill="#42af9e" d="M 285.5,134.5 C 292.55,142.882 299.216,151.548 305.5,160.5C 308.755,166.008 311.755,171.675 314.5,177.5C 313.637,176.537 312.97,176.537 312.5,177.5C 313.521,180.598 314.354,183.598 315,186.5C 310.92,179.821 307.587,172.821 305,165.5C 304.009,166.43 303.509,167.596 303.5,169C 307.449,177.497 311.782,185.83 316.5,194C 314.571,195.694 313.571,197.861 313.5,200.5C 306.108,188.058 298.941,175.391 292,162.5C 291.292,161.619 290.458,160.953 289.5,160.5C 289.5,159.833 289.5,159.167 289.5,158.5C 290.268,157.737 290.768,156.737 291,155.5C 291.202,157.256 291.702,158.922 292.5,160.5C 293.306,157.638 294.639,157.138 296.5,159C 294.934,161.677 295.6,163.01 298.5,163C 297.751,161.266 297.251,159.433 297,157.5C 294.181,152.699 291.181,148.032 288,143.5C 286.855,140.568 286.022,137.568 285.5,134.5 Z"/></g>
<g><path style="opacity:1" fill="#d6c21e" d="M 249.5,165.5 C 252.721,166.505 256.054,167.339 259.5,168C 264.549,172.193 270.216,175.36 276.5,177.5C 277.681,175.865 277.681,174.198 276.5,172.5C 274.019,169.68 271.019,167.68 267.5,166.5C 266.807,165.482 266.141,164.482 265.5,163.5C 266.167,163.5 266.833,163.5 267.5,163.5C 270.658,165.804 273.991,167.97 277.5,170C 280.719,173.552 283.552,177.385 286,181.5C 286.69,182.738 287.19,182.738 287.5,181.5C 289.017,184.035 290.35,186.702 291.5,189.5C 291.5,191.5 291.5,193.5 291.5,195.5C 287.18,194.838 283.513,192.838 280.5,189.5C 268.098,183.63 255.764,177.797 243.5,172C 232.723,168.583 222.057,168.75 211.5,172.5C 211.414,171.504 211.748,170.671 212.5,170C 209.911,169.538 207.744,170.371 206,172.5C 204.333,171.5 202.667,170.5 201,169.5C 199.06,171.162 198.394,170.829 199,168.5C 200.214,166.951 201.714,165.785 203.5,165C 210.767,162.864 218.1,161.031 225.5,159.5C 230.174,160.169 234.841,160.836 239.5,161.5C 239.5,162.5 239.5,163.5 239.5,164.5C 242.93,165.189 246.264,165.522 249.5,165.5 Z"/></g>
<g><path style="opacity:1" fill="#8ad0c0" d="M 306.5,143.5 C 308.742,150.303 312.575,156.636 318,162.5C 320.891,169.951 324.558,176.951 329,183.5C 331.789,189.407 334.289,195.407 336.5,201.5C 329.906,189.412 322.573,177.746 314.5,166.5C 313.333,162.853 311.166,159.853 308,157.5C 307.667,156.167 307.333,154.833 307,153.5C 302.296,147.306 297.463,141.306 292.5,135.5C 292.667,135.167 292.833,134.833 293,134.5C 294.648,135.717 296.481,136.55 298.5,137C 301.194,139.258 303.861,141.424 306.5,143.5 Z"/></g>
<g><path style="opacity:0.851" fill="#dfcf80" d="M 139.5,167.5 C 137.167,170.5 134.5,173.167 131.5,175.5C 133.167,171.833 135.833,169.167 139.5,167.5 Z"/></g>
<g><path style="opacity:1" fill="#3ca993" d="M 335.5,154.5 C 337.435,155.15 339.435,155.483 341.5,155.5C 350.141,160.155 358.474,165.321 366.5,171C 369.474,174.128 371.807,177.628 373.5,181.5C 373.591,185.54 374.758,189.207 377,192.5C 377.5,207.163 377.667,221.83 377.5,236.5C 377.067,222.037 375.401,207.704 372.5,193.5C 371.043,189.906 369.543,186.239 368,182.5C 361.359,173.197 352.859,166.031 342.5,161C 340.271,158.6 337.937,156.433 335.5,154.5 Z"/></g>
<g><path style="opacity:1" fill="#b1bf6b" d="M 233.5,172.5 C 236.187,172.336 238.854,172.503 241.5,173C 244.458,175.312 247.791,176.812 251.5,177.5C 252.953,179.185 254.286,180.851 255.5,182.5C 248.356,178.592 241.023,175.259 233.5,172.5 Z"/></g>
<g><path style="opacity:1" fill="#f6dd6d" d="M 207.5,161.5 C 201.697,165.092 195.697,168.592 189.5,172C 186.377,174.077 183.71,176.577 181.5,179.5C 170.931,187.727 162.597,197.727 156.5,209.5C 155.883,209.389 155.383,209.056 155,208.5C 154.667,210.167 154.333,211.833 154,213.5C 153.667,213.167 153.333,212.833 153,212.5C 149.13,219.303 146.797,226.636 146,234.5C 145.329,233.748 144.496,233.414 143.5,233.5C 143.851,230.097 144.518,226.763 145.5,223.5C 147.526,218.11 149.86,212.777 152.5,207.5C 153.496,207.586 154.329,207.252 155,206.5C 157.084,202.593 158.917,198.593 160.5,194.5C 162.657,192.588 164.991,190.921 167.5,189.5C 169.39,185.781 172.056,182.948 175.5,181C 180.882,175.111 187.215,170.611 194.5,167.5C 195.298,167.043 195.631,166.376 195.5,165.5C 197.722,164.312 200.055,163.312 202.5,162.5C 204.117,161.962 205.784,161.629 207.5,161.5 Z"/></g>
<g><path style="opacity:1" fill="#d7c32a" d="M 159.5,160.5 C 155.035,163.904 150.369,167.071 145.5,170C 134.003,179.166 127.336,190.999 125.5,205.5C 124.324,199.317 124.324,192.983 125.5,186.5C 125.5,186.167 125.5,185.833 125.5,185.5C 128.451,184.191 129.784,181.857 129.5,178.5C 129.427,176.973 130.094,175.973 131.5,175.5C 134.5,173.167 137.167,170.5 139.5,167.5C 143.299,164.048 147.632,161.382 152.5,159.5C 154.848,159.408 156.514,158.408 157.5,156.5C 158.967,155.708 160.3,155.708 161.5,156.5C 160.147,157.524 159.48,158.857 159.5,160.5 Z"/></g>
<g><path style="opacity:1" fill="#72c8b5" d="M 305.5,160.5 C 308.135,162.65 310.302,165.317 312,168.5C 312.708,167.619 313.542,166.953 314.5,166.5C 322.573,177.746 329.906,189.412 336.5,201.5C 340.243,208.343 342.91,215.676 344.5,223.5C 347.579,240.129 346.413,256.462 341,272.5C 338.688,274.868 336.188,276.868 333.5,278.5C 333.833,277.833 334.167,277.167 334.5,276.5C 337.415,273.01 339.582,269.01 341,264.5C 342.397,257.548 342.73,250.548 342,243.5C 336.956,224.413 329.956,206.08 321,188.5C 318.913,184.678 316.747,181.011 314.5,177.5C 311.755,171.675 308.755,166.008 305.5,160.5 Z"/></g>
<g><path style="opacity:1" fill="#dac321" d="M 228.5,157.5 C 237.623,157.232 246.623,157.899 255.5,159.5C 257.806,159.993 260.139,160.326 262.5,160.5C 263.167,161.5 263.833,162.5 264.5,163.5C 258.667,162.585 252.834,161.585 247,160.5C 245.833,160.667 244.667,160.833 243.5,161C 245.859,162.242 247.859,163.742 249.5,165.5C 246.264,165.522 242.93,165.189 239.5,164.5C 239.5,163.5 239.5,162.5 239.5,161.5C 234.841,160.836 230.174,160.169 225.5,159.5C 218.1,161.031 210.767,162.864 203.5,165C 201.714,165.785 200.214,166.951 199,168.5C 198.394,170.829 199.06,171.162 201,169.5C 202.667,170.5 204.333,171.5 206,172.5C 207.744,170.371 209.911,169.538 212.5,170C 211.748,170.671 211.414,171.504 211.5,172.5C 209.545,172.799 208.211,173.799 207.5,175.5C 203.131,178.869 199.464,182.869 196.5,187.5C 192.496,190.771 190.163,195.104 189.5,200.5C 187.166,202.176 186.166,204.509 186.5,207.5C 184.938,207.733 183.605,208.4 182.5,209.5C 181.941,206.484 181.275,203.484 180.5,200.5C 182.149,199.852 183.482,198.852 184.5,197.5C 183.645,196.707 182.811,197.04 182,198.5C 179.863,196.679 179.03,194.346 179.5,191.5C 181.201,187.772 183.201,184.106 185.5,180.5C 184.311,179.571 182.978,179.238 181.5,179.5C 183.71,176.577 186.377,174.077 189.5,172C 195.697,168.592 201.697,165.092 207.5,161.5C 214.246,158.92 221.246,157.587 228.5,157.5 Z"/></g>
<g><path style="opacity:1" fill="#90b454" d="M 285.5,165.5 C 286.285,168.404 287.619,171.07 289.5,173.5C 289.5,174.167 289.5,174.833 289.5,175.5C 290.232,179.787 291.565,183.787 293.5,187.5C 293.5,189.833 293.5,192.167 293.5,194.5C 292.833,192.833 292.167,191.167 291.5,189.5C 290.35,186.702 289.017,184.035 287.5,181.5C 287.702,179.05 287.369,176.717 286.5,174.5C 286.037,171.518 285.704,168.518 285.5,165.5 Z"/></g>
<g><path style="opacity:1" fill="#fdf4cb" d="M 207.5,139.5 C 207.5,140.833 207.5,142.167 207.5,143.5C 207.5,144.5 207.5,145.5 207.5,146.5C 209.527,146.338 211.527,146.505 213.5,147C 209.806,147.278 206.139,147.278 202.5,147C 195.674,151.535 188.674,155.535 181.5,159C 179.559,159.743 177.726,159.576 176,158.5C 175.383,159.449 175.549,160.282 176.5,161C 173.291,162.094 171.291,164.26 170.5,167.5C 166.733,170.469 162.566,172.802 158,174.5C 155.601,179.309 152.268,183.309 148,186.5C 145.872,192.296 142.539,197.296 138,201.5C 137.517,202.448 137.351,203.448 137.5,204.5C 134.524,208.438 132.024,212.771 130,217.5C 129.333,215.5 129.333,213.5 130,211.5C 133.178,209.093 134.012,206.093 132.5,202.5C 129.886,204.433 127.886,206.766 126.5,209.5C 128.334,204.823 130.501,200.157 133,195.5C 138.818,188.027 144.985,180.861 151.5,174C 156.978,169.841 162.312,165.508 167.5,161C 173.969,157.263 180.302,153.263 186.5,149C 188.154,148.392 189.821,147.892 191.5,147.5C 197.101,145.366 202.434,142.699 207.5,139.5 Z"/></g>
<g><path style="opacity:0.357" fill="#c4e0cc" d="M 290.5,172.5 C 291.768,174.905 292.435,177.572 292.5,180.5C 291.463,179.07 290.796,177.403 290.5,175.5C 290.5,174.5 290.5,173.5 290.5,172.5 Z"/></g>
<g><path style="opacity:1" fill="#8db47b" d="M 289.5,175.5 C 289.833,175.5 290.167,175.5 290.5,175.5C 290.796,177.403 291.463,179.07 292.5,180.5C 292.993,182.806 293.326,185.139 293.5,187.5C 291.565,183.787 290.232,179.787 289.5,175.5 Z"/></g>
<g><path style="opacity:0.016" fill="#d8d491" d="M 216.5,173.5 C 212.657,174.755 208.99,176.588 205.5,179C 202.631,182.038 199.631,184.871 196.5,187.5C 199.464,182.869 203.131,178.869 207.5,175.5C 210.303,174.072 213.303,173.405 216.5,173.5 Z"/></g>
<g><path style="opacity:1" fill="#d9c560" d="M 129.5,178.5 C 129.784,181.857 128.451,184.191 125.5,185.5C 126.079,182.669 127.412,180.336 129.5,178.5 Z"/></g>
<g><path style="opacity:0.42" fill="#cdd8a6" d="M 260.5,185.5 C 262.027,185.427 263.027,186.094 263.5,187.5C 261.973,187.573 260.973,186.906 260.5,185.5 Z"/></g>
<g><path style="opacity:1" fill="#abba40" d="M 291.5,189.5 C 292.167,191.167 292.833,192.833 293.5,194.5C 294.299,197.43 294.632,200.43 294.5,203.5C 293.5,203.5 292.5,203.5 291.5,203.5C 291.785,201.712 291.452,200.045 290.5,198.5C 289.833,199.167 289.167,199.833 288.5,200.5C 286.718,197.377 284.052,195.21 280.5,194C 280.833,193.667 281.167,193.333 281.5,193C 275.569,190.864 269.569,189.031 263.5,187.5C 263.027,186.094 262.027,185.427 260.5,185.5C 258.326,185.25 256.659,184.25 255.5,182.5C 254.286,180.851 252.953,179.185 251.5,177.5C 247.791,176.812 244.458,175.312 241.5,173C 238.854,172.503 236.187,172.336 233.5,172.5C 233.167,172.5 232.833,172.5 232.5,172.5C 227.684,171.35 222.684,171.184 217.5,172C 216.944,172.383 216.611,172.883 216.5,173.5C 213.303,173.405 210.303,174.072 207.5,175.5C 208.211,173.799 209.545,172.799 211.5,172.5C 222.057,168.75 232.723,168.583 243.5,172C 255.764,177.797 268.098,183.63 280.5,189.5C 283.513,192.838 287.18,194.838 291.5,195.5C 291.5,193.5 291.5,191.5 291.5,189.5 Z"/></g>
<g><path style="opacity:0.051" fill="#ddddac" d="M 232.5,172.5 C 227.12,172.324 221.787,172.658 216.5,173.5C 216.611,172.883 216.944,172.383 217.5,172C 222.684,171.184 227.684,171.35 232.5,172.5 Z"/></g>
<g><path style="opacity:1" fill="#42b29e" d="M 314.5,177.5 C 316.747,181.011 318.913,184.678 321,188.5C 329.956,206.08 336.956,224.413 342,243.5C 342.73,250.548 342.397,257.548 341,264.5C 339.582,269.01 337.415,273.01 334.5,276.5C 335.887,269.576 336.554,262.576 336.5,255.5C 337.57,245.304 335.403,235.971 330,227.5C 329.329,226.748 328.496,226.414 327.5,226.5C 322.312,218.125 317.645,209.458 313.5,200.5C 313.571,197.861 314.571,195.694 316.5,194C 311.782,185.83 307.449,177.497 303.5,169C 303.509,167.596 304.009,166.43 305,165.5C 307.587,172.821 310.92,179.821 315,186.5C 314.354,183.598 313.521,180.598 312.5,177.5C 312.97,176.537 313.637,176.537 314.5,177.5 Z"/></g>
<g><path style="opacity:1" fill="#fbe89b" d="M 195.5,165.5 C 195.631,166.376 195.298,167.043 194.5,167.5C 187.215,170.611 180.882,175.111 175.5,181C 172.056,182.948 169.39,185.781 167.5,189.5C 164.991,190.921 162.657,192.588 160.5,194.5C 158.917,198.593 157.084,202.593 155,206.5C 154.329,207.252 153.496,207.586 152.5,207.5C 154.156,200.533 157.656,194.533 163,189.5C 163.273,187.899 163.773,186.399 164.5,185C 170.382,180.899 176.048,176.565 181.5,172C 186.3,170.011 190.966,167.845 195.5,165.5 Z"/></g>
<g><path style="opacity:1" fill="#a0d8cb" d="M 338.5,168.5 C 343.861,170.172 349.195,171.839 354.5,173.5C 354.884,175.929 355.551,178.263 356.5,180.5C 357.675,180.281 358.675,180.614 359.5,181.5C 360.21,184.673 361.377,187.673 363,190.5C 365.258,194.691 367.758,198.691 370.5,202.5C 371.479,205.625 371.813,208.958 371.5,212.5C 368.469,224.002 367.635,235.668 369,247.5C 367.385,253.688 365.551,259.688 363.5,265.5C 364.791,251.236 366.124,237.07 367.5,223C 367.426,214.238 365.926,205.738 363,197.5C 359.587,193.71 356.921,189.376 355,184.5C 354,182.167 352.333,180.5 350,179.5C 349.712,176.713 348.212,175.047 345.5,174.5C 343.425,172.281 341.091,170.281 338.5,168.5 Z"/></g>
<g><path style="opacity:1" fill="#bbe4dc" d="M 335.5,165.5 C 336.833,166.167 337.833,167.167 338.5,168.5C 341.091,170.281 343.425,172.281 345.5,174.5C 345.343,175.873 345.51,177.207 346,178.5C 359.857,196.415 365.857,216.748 364,239.5C 362.222,241.945 360.889,244.611 360,247.5C 359.278,239.838 358.612,232.171 358,224.5C 355.646,214.798 353.313,205.131 351,195.5C 346.375,187.22 341.375,179.22 336,171.5C 336.054,168.809 334.887,166.976 332.5,166C 333.448,165.517 334.448,165.351 335.5,165.5 Z"/></g>
<g><path style="opacity:1" fill="#fef8e1" d="M 170.5,167.5 C 171.239,167.369 171.906,167.536 172.5,168C 171.324,169.674 169.99,171.174 168.5,172.5C 169.833,173.167 171.167,173.833 172.5,174.5C 172.333,174.833 172.167,175.167 172,175.5C 169.251,178.26 166.251,180.594 163,182.5C 161.779,181.728 160.779,180.728 160,179.5C 160.412,182.549 160.245,185.549 159.5,188.5C 157.849,189.97 156.015,191.303 154,192.5C 154.531,196.748 152.697,199.082 148.5,199.5C 146.115,202.212 143.782,204.878 141.5,207.5C 138.882,212.989 135.882,218.322 132.5,223.5C 132.167,222.667 131.833,221.833 131.5,221C 132.883,215.174 134.883,209.674 137.5,204.5C 137.351,203.448 137.517,202.448 138,201.5C 142.539,197.296 145.872,192.296 148,186.5C 152.268,183.309 155.601,179.309 158,174.5C 162.566,172.802 166.733,170.469 170.5,167.5 Z"/></g>
<g><path style="opacity:1" fill="#abbe61" d="M 263.5,187.5 C 269.569,189.031 275.569,190.864 281.5,193C 281.167,193.333 280.833,193.667 280.5,194C 284.052,195.21 286.718,197.377 288.5,200.5C 289.167,199.833 289.833,199.167 290.5,198.5C 291.452,200.045 291.785,201.712 291.5,203.5C 281.833,198.669 272.5,193.336 263.5,187.5 Z"/></g>
<g><path style="opacity:0.757" fill="#c5bd66" d="M 196.5,187.5 C 194.417,192 192.084,196.334 189.5,200.5C 190.163,195.104 192.496,190.771 196.5,187.5 Z"/></g>
<g><path style="opacity:1" fill="#fcf1be" d="M 217.5,156.5 C 213.068,158.302 208.401,159.802 203.5,161C 202.944,161.383 202.611,161.883 202.5,162.5C 200.055,163.312 197.722,164.312 195.5,165.5C 190.966,167.845 186.3,170.011 181.5,172C 176.048,176.565 170.382,180.899 164.5,185C 163.773,186.399 163.273,187.899 163,189.5C 157.656,194.533 154.156,200.533 152.5,207.5C 149.86,212.777 147.526,218.11 145.5,223.5C 142.922,228.626 140.588,233.959 138.5,239.5C 137.676,236.215 137.176,232.882 137,229.5C 136.221,232.097 135.721,232.097 135.5,229.5C 135.995,227.518 136.495,225.518 137,223.5C 138.533,223.056 140.033,222.723 141.5,222.5C 139.834,221.008 138.834,219.175 138.5,217C 140.573,214.278 141.573,211.112 141.5,207.5C 143.782,204.878 146.115,202.212 148.5,199.5C 152.697,199.082 154.531,196.748 154,192.5C 156.015,191.303 157.849,189.97 159.5,188.5C 166.555,182.431 173.555,176.098 180.5,169.5C 182.308,169.509 183.975,169.009 185.5,168C 188.361,166.168 190.861,164.001 193,161.5C 195.621,161.704 198.455,161.704 201.5,161.5C 201.421,160.07 201.754,158.736 202.5,157.5C 205.206,155.47 207.706,155.47 210,157.5C 212.381,156.565 214.881,156.232 217.5,156.5 Z"/></g>
<g><path style="opacity:1" fill="#e4d987" d="M 227.5,195.5 C 235.611,196.059 242.611,199.059 248.5,204.5C 247.305,204.322 246.138,203.989 245,203.5C 243.97,203.836 243.47,204.503 243.5,205.5C 241.031,204.431 238.698,203.098 236.5,201.5C 235.833,201.167 235.167,200.833 234.5,200.5C 234.167,200.5 233.833,200.5 233.5,200.5C 232.833,199.833 232.167,199.167 231.5,198.5C 230.048,197.698 228.382,197.198 226.5,197C 227.056,196.617 227.389,196.117 227.5,195.5 Z"/></g>
<g><path style="opacity:1" fill="#fbf5d9" d="M 234.5,200.5 C 235.167,200.833 235.833,201.167 236.5,201.5C 236.5,202.5 236.5,203.5 236.5,204.5C 232.5,204.833 232.5,205.167 236.5,205.5C 236.625,210.583 234.625,214.583 230.5,217.5C 229.359,222.588 227.359,227.255 224.5,231.5C 223.482,232.193 222.482,232.859 221.5,233.5C 222.578,226.543 223.411,219.543 224,212.5C 225.312,209.559 226.812,206.726 228.5,204C 229.416,203.626 230.25,203.126 231,202.5C 234.388,204.26 235.554,203.593 234.5,200.5 Z"/></g>
<g><path style="opacity:1" fill="#b5bf7a" d="M 293.5,187.5 C 295.067,192.979 296.4,198.646 297.5,204.5C 297.167,205.167 296.833,205.833 296.5,206.5C 294.604,205.725 292.937,204.725 291.5,203.5C 292.5,203.5 293.5,203.5 294.5,203.5C 294.632,200.43 294.299,197.43 293.5,194.5C 293.5,192.167 293.5,189.833 293.5,187.5 Z"/></g>
<g><path style="opacity:0.91" fill="#d8cd74" d="M 189.5,200.5 C 189.293,203.241 188.293,205.574 186.5,207.5C 186.166,204.509 187.166,202.176 189.5,200.5 Z"/></g>
<g><path style="opacity:1" fill="#e7c514" d="M 181.5,179.5 C 182.978,179.238 184.311,179.571 185.5,180.5C 183.201,184.106 181.201,187.772 179.5,191.5C 178.247,194.59 176.08,196.923 173,198.5C 172.586,202.656 171.586,206.656 170,210.5C 166.137,217.499 163.137,224.833 161,232.5C 160.762,236.837 159.929,241.17 158.5,245.5C 156.647,248.226 155.48,251.226 155,254.5C 154.075,255.047 153.242,255.713 152.5,256.5C 154.611,257.605 155.945,259.271 156.5,261.5C 155.25,261.577 154.417,262.244 154,263.5C 154.58,266.954 154.08,270.121 152.5,273C 153.101,274.605 154.101,275.938 155.5,277C 154.069,278.562 152.569,280.062 151,281.5C 150.333,280.833 149.667,280.167 149,279.5C 147.093,263.992 147.593,248.659 150.5,233.5C 151.5,233.5 152.5,233.5 153.5,233.5C 153.5,229.5 153.5,225.5 153.5,221.5C 154.488,217.516 155.488,213.516 156.5,209.5C 162.597,197.727 170.931,187.727 181.5,179.5 Z"/></g>
<g><path style="opacity:1" fill="#d9c21a" d="M 179.5,191.5 C 179.03,194.346 179.863,196.679 182,198.5C 182.811,197.04 183.645,196.707 184.5,197.5C 183.482,198.852 182.149,199.852 180.5,200.5C 181.275,203.484 181.941,206.484 182.5,209.5C 180.682,213.867 179.348,218.533 178.5,223.5C 175.234,223.433 173.734,225.099 174,228.5C 173.107,227.289 172.274,227.289 171.5,228.5C 172.52,230.432 172.687,232.432 172,234.5C 168.544,239.277 166.378,244.611 165.5,250.5C 164.185,251.476 162.852,252.476 161.5,253.5C 160.761,256.909 159.095,259.575 156.5,261.5C 155.945,259.271 154.611,257.605 152.5,256.5C 153.242,255.713 154.075,255.047 155,254.5C 155.48,251.226 156.647,248.226 158.5,245.5C 159.929,241.17 160.762,236.837 161,232.5C 163.137,224.833 166.137,217.499 170,210.5C 171.586,206.656 172.586,202.656 173,198.5C 176.08,196.923 178.247,194.59 179.5,191.5 Z"/></g>
<g><path style="opacity:1" fill="#fcf9e9" d="M 233.5,200.5 C 233.833,200.5 234.167,200.5 234.5,200.5C 235.554,203.593 234.388,204.26 231,202.5C 230.25,203.126 229.416,203.626 228.5,204C 226.812,206.726 225.312,209.559 224,212.5C 223.411,219.543 222.578,226.543 221.5,233.5C 220.883,233.611 220.383,233.944 220,234.5C 219.291,223.811 219.458,213.144 220.5,202.5C 224.588,200.82 228.921,200.153 233.5,200.5 Z"/></g>
<g><path style="opacity:1" fill="#faf2cb" d="M 231.5,198.5 C 232.167,199.167 232.833,199.833 233.5,200.5C 228.921,200.153 224.588,200.82 220.5,202.5C 219.458,213.144 219.291,223.811 220,234.5C 220.383,233.944 220.883,233.611 221.5,233.5C 222.482,232.859 223.482,232.193 224.5,231.5C 227.359,227.255 229.359,222.588 230.5,217.5C 234.625,214.583 236.625,210.583 236.5,205.5C 232.5,205.167 232.5,204.833 236.5,204.5C 236.5,203.5 236.5,202.5 236.5,201.5C 238.698,203.098 241.031,204.431 243.5,205.5C 245.012,209.115 244.179,212.115 241,214.5C 240.178,217.117 239.678,219.784 239.5,222.5C 239.5,222.833 239.5,223.167 239.5,223.5C 237.052,225.284 234.385,226.618 231.5,227.5C 231.5,229.167 231.5,230.833 231.5,232.5C 230.5,232.5 229.5,232.5 228.5,232.5C 228.813,235.247 228.48,237.914 227.5,240.5C 226.94,238.623 225.773,236.623 224,234.5C 222.661,241.426 222.161,248.426 222.5,255.5C 221.343,258.273 220.676,261.273 220.5,264.5C 219.833,264.5 219.5,264.833 219.5,265.5C 218.206,244.313 218.206,222.98 219.5,201.5C 223.148,199.357 227.148,198.357 231.5,198.5 Z"/></g>
<g><path style="opacity:1" fill="#d6ca52" d="M 248.5,204.5 C 252.836,206.332 256.836,208.665 260.5,211.5C 260.209,212.649 259.376,213.316 258,213.5C 257.167,213.333 256.333,213.167 255.5,213C 254.211,211.198 252.544,210.031 250.5,209.5C 248.167,208.167 245.833,206.833 243.5,205.5C 243.47,204.503 243.97,203.836 245,203.5C 246.138,203.989 247.305,204.322 248.5,204.5 Z"/></g>
<g><path style="opacity:1" fill="#f0e59e" d="M 243.5,205.5 C 245.833,206.833 248.167,208.167 250.5,209.5C 252.674,213.516 256.007,215.516 260.5,215.5C 259.167,215.5 257.833,215.5 256.5,215.5C 256.167,217.5 255.833,219.5 255.5,221.5C 254.092,220.939 252.592,220.605 251,220.5C 247.279,221.889 243.446,222.556 239.5,222.5C 239.678,219.784 240.178,217.117 241,214.5C 244.179,212.115 245.012,209.115 243.5,205.5 Z"/></g>
<g><path style="opacity:1" fill="#eee9ad" d="M 227.5,195.5 C 227.389,196.117 227.056,196.617 226.5,197C 228.382,197.198 230.048,197.698 231.5,198.5C 227.148,198.357 223.148,199.357 219.5,201.5C 218.206,222.98 218.206,244.313 219.5,265.5C 219.657,266.873 219.49,268.207 219,269.5C 218.722,268.584 218.222,267.918 217.5,267.5C 217.667,247.164 217.5,226.831 217,206.5C 216.617,207.056 216.117,207.389 215.5,207.5C 215.5,207.167 215.5,206.833 215.5,206.5C 216.907,200.096 220.907,196.429 227.5,195.5 Z"/></g>
<g><path style="opacity:1" fill="#459c8a" d="M 373.5,181.5 C 376.541,185.956 378.208,190.956 378.5,196.5C 378.5,216.167 378.5,235.833 378.5,255.5C 377.51,249.355 377.177,243.022 377.5,236.5C 377.667,221.83 377.5,207.163 377,192.5C 374.758,189.207 373.591,185.54 373.5,181.5 Z"/></g>
<g><path style="opacity:1" fill="#d5c85b" d="M 186.5,207.5 C 184.341,213.151 181.674,218.484 178.5,223.5C 179.348,218.533 180.682,213.867 182.5,209.5C 183.605,208.4 184.938,207.733 186.5,207.5 Z"/></g>
<g><path style="opacity:0.639" fill="#dbd59c" d="M 123.5,193.5 C 123.5,219.5 123.5,245.5 123.5,271.5C 123.5,275.5 123.5,279.5 123.5,283.5C 123.5,289.167 123.5,294.833 123.5,300.5C 122.807,274.653 122.14,248.653 121.5,222.5C 122.769,215.986 122.769,209.486 121.5,203C 122.05,199.676 122.717,196.509 123.5,193.5 Z"/></g>
<g><path style="opacity:1" fill="#f7ecb2" d="M 260.5,215.5 C 265.497,218.162 270.497,220.828 275.5,223.5C 277.078,225.318 276.578,226.318 274,226.5C 267.803,224.585 261.636,222.918 255.5,221.5C 255.833,219.5 256.167,217.5 256.5,215.5C 257.833,215.5 259.167,215.5 260.5,215.5 Z"/></g>
<g><path style="opacity:1" fill="#e7d769" d="M 239.5,223.5 C 244.167,223.5 248.833,223.5 253.5,223.5C 253.5,225.5 253.5,227.5 253.5,229.5C 249.922,231.136 247.922,233.969 247.5,238C 248.167,238.167 248.833,238.333 249.5,238.5C 256.487,236.141 263.487,233.974 270.5,232C 273.082,228.718 276.416,227.718 280.5,229C 281.756,229.417 282.423,230.25 282.5,231.5C 281.5,231.5 280.5,231.5 279.5,231.5C 275.051,232.029 270.718,233.029 266.5,234.5C 258.08,237.304 249.58,239.637 241,241.5C 240,240.167 239,240.167 238,241.5C 237.51,242.793 237.343,244.127 237.5,245.5C 232.657,249.488 228.49,254.155 225,259.5C 223.454,262.592 221.954,265.592 220.5,268.5C 220.5,267.167 220.5,265.833 220.5,264.5C 220.676,261.273 221.343,258.273 222.5,255.5C 224.231,251.657 226.398,247.991 229,244.5C 230.942,236.615 234.442,229.615 239.5,223.5 Z"/></g>
<g><path style="opacity:1" fill="#f1e391" d="M 255.5,221.5 C 261.636,222.918 267.803,224.585 274,226.5C 276.578,226.318 277.078,225.318 275.5,223.5C 277.054,224.693 278.721,225.86 280.5,227C 276.833,227.333 273.167,227.667 269.5,228C 268.167,228.667 268.167,229.333 269.5,230C 264.918,232.079 260.085,233.579 255,234.5C 252.21,233.576 251.71,231.909 253.5,229.5C 253.5,227.5 253.5,225.5 253.5,223.5C 248.833,223.5 244.167,223.5 239.5,223.5C 239.5,223.167 239.5,222.833 239.5,222.5C 243.446,222.556 247.279,221.889 251,220.5C 252.592,220.605 254.092,220.939 255.5,221.5 Z"/></g>
<g><path style="opacity:1" fill="#fdf5d1" d="M 137.5,204.5 C 134.883,209.674 132.883,215.174 131.5,221C 131.833,221.833 132.167,222.667 132.5,223.5C 135.882,218.322 138.882,212.989 141.5,207.5C 141.573,211.112 140.573,214.278 138.5,217C 138.834,219.175 139.834,221.008 141.5,222.5C 140.033,222.723 138.533,223.056 137,223.5C 136.495,225.518 135.995,227.518 135.5,229.5C 134.001,237.955 133.335,246.622 133.5,255.5C 134.5,255.5 135.5,255.5 136.5,255.5C 136.98,260.822 137.313,266.155 137.5,271.5C 136.5,271.5 135.5,271.5 134.5,271.5C 134.409,267.818 133.076,264.651 130.5,262C 130.833,260.333 131.167,258.667 131.5,257C 130.194,249.924 129.194,242.757 128.5,235.5C 127.817,235.137 127.15,234.804 126.5,234.5C 126.5,226.167 126.5,217.833 126.5,209.5C 127.886,206.766 129.886,204.433 132.5,202.5C 134.012,206.093 133.178,209.093 130,211.5C 129.333,213.5 129.333,215.5 130,217.5C 132.024,212.771 134.524,208.438 137.5,204.5 Z"/></g>
<g><path style="opacity:1" fill="#f7da5d" d="M 156.5,209.5 C 155.488,213.516 154.488,217.516 153.5,221.5C 152.442,222.6 151.608,223.934 151,225.5C 146.593,242.906 145.426,260.572 147.5,278.5C 143.458,264.523 142.125,250.189 143.5,235.5C 143.5,234.833 143.5,234.167 143.5,233.5C 144.496,233.414 145.329,233.748 146,234.5C 146.797,226.636 149.13,219.303 153,212.5C 153.333,212.833 153.667,213.167 154,213.5C 154.333,211.833 154.667,210.167 155,208.5C 155.383,209.056 155.883,209.389 156.5,209.5 Z"/></g>
<g><path style="opacity:1" fill="#acbd3b" d="M 279.5,231.5 C 280.5,231.5 281.5,231.5 282.5,231.5C 284.5,231.5 286.5,231.5 288.5,231.5C 289.266,237.91 287.266,243.077 282.5,247C 281.167,247.333 279.833,247.667 278.5,248C 277.622,251.711 275.289,253.877 271.5,254.5C 267.886,260.734 263.552,266.401 258.5,271.5C 260.88,267.759 262.88,263.759 264.5,259.5C 268.861,255.245 272.861,250.745 276.5,246C 283.13,244.023 283.13,241.856 276.5,239.5C 277.376,238.749 278.376,238.249 279.5,238C 278.272,236.51 278.272,235.01 279.5,233.5C 279.5,232.833 279.5,232.167 279.5,231.5 Z"/></g>
<g><path style="opacity:1" fill="#eadd81" d="M 250.5,209.5 C 252.544,210.031 254.211,211.198 255.5,213C 256.333,213.167 257.167,213.333 258,213.5C 259.376,213.316 260.209,212.649 260.5,211.5C 270.027,216.045 279.027,221.378 287.5,227.5C 287.527,229.199 288.194,230.533 289.5,231.5C 289.167,231.5 288.833,231.5 288.5,231.5C 286.5,231.5 284.5,231.5 282.5,231.5C 282.423,230.25 281.756,229.417 280.5,229C 276.416,227.718 273.082,228.718 270.5,232C 263.487,233.974 256.487,236.141 249.5,238.5C 248.833,238.333 248.167,238.167 247.5,238C 247.922,233.969 249.922,231.136 253.5,229.5C 251.71,231.909 252.21,233.576 255,234.5C 260.085,233.579 264.918,232.079 269.5,230C 268.167,229.333 268.167,228.667 269.5,228C 273.167,227.667 276.833,227.333 280.5,227C 278.721,225.86 277.054,224.693 275.5,223.5C 270.497,220.828 265.497,218.162 260.5,215.5C 256.007,215.516 252.674,213.516 250.5,209.5 Z"/></g>
<g><path style="opacity:1" fill="#f6eaad" d="M 239.5,223.5 C 234.442,229.615 230.942,236.615 229,244.5C 226.398,247.991 224.231,251.657 222.5,255.5C 222.161,248.426 222.661,241.426 224,234.5C 225.773,236.623 226.94,238.623 227.5,240.5C 228.48,237.914 228.813,235.247 228.5,232.5C 229.5,232.5 230.5,232.5 231.5,232.5C 231.5,230.833 231.5,229.167 231.5,227.5C 234.385,226.618 237.052,225.284 239.5,223.5 Z"/></g>
<g><path style="opacity:1" fill="#d6c657" d="M 178.5,223.5 C 175.5,230.167 172.5,236.833 169.5,243.5C 167.952,243.821 167.285,244.821 167.5,246.5C 167.34,248.153 166.674,249.486 165.5,250.5C 166.378,244.611 168.544,239.277 172,234.5C 172.687,232.432 172.52,230.432 171.5,228.5C 172.274,227.289 173.107,227.289 174,228.5C 173.734,225.099 175.234,223.433 178.5,223.5 Z"/></g>
<g><path style="opacity:1" fill="#91b84f" d="M 288.5,231.5 C 288.833,231.5 289.167,231.5 289.5,231.5C 289.62,232.586 290.287,233.253 291.5,233.5C 301.674,234.089 307.007,239.422 307.5,249.5C 304.142,250.285 300.809,251.285 297.5,252.5C 285.621,258.614 274.954,266.447 265.5,276C 263.608,276.973 261.608,277.64 259.5,278C 250.485,286.643 240.485,293.477 229.5,298.5C 227.167,298.5 224.833,298.5 222.5,298.5C 222.027,297.094 221.027,296.427 219.5,296.5C 218.787,293.406 217.787,290.406 216.5,287.5C 216.833,287.5 217.167,287.5 217.5,287.5C 226.746,290.928 235.413,289.761 243.5,284C 248.417,279.569 253.417,275.402 258.5,271.5C 263.552,266.401 267.886,260.734 271.5,254.5C 275.289,253.877 277.622,251.711 278.5,248C 279.833,247.667 281.167,247.333 282.5,247C 287.266,243.077 289.266,237.91 288.5,231.5 Z"/></g>
<g><path style="opacity:1" fill="#85cebd" d="M 378.5,196.5 C 379.833,232.5 379.833,268.5 378.5,304.5C 378.666,297.159 378.5,289.826 378,282.5C 378.674,292.812 376.674,302.479 372,311.5C 368.883,315.454 365.05,318.454 360.5,320.5C 359.113,322.21 357.779,323.877 356.5,325.5C 356.631,324.761 356.464,324.094 356,323.5C 350.448,326.861 344.614,329.527 338.5,331.5C 336.071,328.974 333.071,328.141 329.5,329C 324.36,331.234 319.027,332.901 313.5,334C 310.53,337.889 306.53,339.889 301.5,340C 298.268,341.23 295.601,343.23 293.5,346C 285.967,347.707 278.633,350.04 271.5,353C 261.595,354.328 251.928,356.162 242.5,358.5C 237.637,358.819 232.97,358.486 228.5,357.5C 244.315,356.369 259.315,352.369 273.5,345.5C 279.012,343.788 284.512,342.121 290,340.5C 293.099,341.405 295.599,340.405 297.5,337.5C 300.462,336.991 303.129,335.991 305.5,334.5C 306.6,333.442 307.934,332.608 309.5,332C 322.931,329.209 336.264,326.209 349.5,323C 343.646,322.335 337.813,322.501 332,323.5C 330.319,323.392 329.152,322.725 328.5,321.5C 328.833,321.5 329.167,321.5 329.5,321.5C 336.557,321.76 343.557,321.427 350.5,320.5C 359.222,320.389 366.055,316.722 371,309.5C 372.363,304.386 371.197,303.386 367.5,306.5C 366.957,306.44 366.624,306.107 366.5,305.5C 369.433,301.634 371.266,297.301 372,292.5C 373.331,285.541 373.664,278.541 373,271.5C 369.96,276.946 366.46,281.946 362.5,286.5C 361.833,286.833 361.167,287.167 360.5,287.5C 359.503,287.53 358.836,287.03 358.5,286C 361.817,279.615 363.484,272.781 363.5,265.5C 365.551,259.688 367.385,253.688 369,247.5C 367.635,235.668 368.469,224.002 371.5,212.5C 372.167,221.5 372.833,230.5 373.5,239.5C 373.334,249.172 373.5,258.839 374,268.5C 376.052,264.387 377.552,260.054 378.5,255.5C 378.5,235.833 378.5,216.167 378.5,196.5 Z"/></g>
<g><path style="opacity:1" fill="#b0e0d5" d="M 335.5,165.5 C 334.448,165.351 333.448,165.517 332.5,166C 334.887,166.976 336.054,168.809 336,171.5C 341.375,179.22 346.375,187.22 351,195.5C 353.313,205.131 355.646,214.798 358,224.5C 358.612,232.171 359.278,239.838 360,247.5C 360.889,244.611 362.222,241.945 364,239.5C 365.857,216.748 359.857,196.415 346,178.5C 345.51,177.207 345.343,175.873 345.5,174.5C 348.212,175.047 349.712,176.713 350,179.5C 352.333,180.5 354,182.167 355,184.5C 356.921,189.376 359.587,193.71 363,197.5C 365.926,205.738 367.426,214.238 367.5,223C 366.124,237.07 364.791,251.236 363.5,265.5C 360.531,271.224 358.031,277.224 356,283.5C 355.059,285.772 353.726,287.772 352,289.5C 351.501,285.848 351.335,282.182 351.5,278.5C 353.33,271.685 355.33,265.019 357.5,258.5C 358.147,257.726 358.48,256.726 358.5,255.5C 356.133,236.833 352.3,218.5 347,200.5C 346.075,199.953 345.242,199.287 344.5,198.5C 341.581,188.26 336.914,178.927 330.5,170.5C 329.692,168.577 329.192,166.577 329,164.5C 326.002,163.716 325.169,162.049 326.5,159.5C 329.561,161.589 332.561,163.589 335.5,165.5 Z"/></g>
<g><path style="opacity:1" fill="#ecd556" d="M 266.5,234.5 C 258.275,243.623 249.609,252.29 240.5,260.5C 239.417,259.635 239.251,258.635 240,257.5C 242.403,252.124 244.903,246.791 247.5,241.5C 246.635,240.417 245.635,240.251 244.5,241C 242.266,242.75 239.932,244.25 237.5,245.5C 237.343,244.127 237.51,242.793 238,241.5C 239,240.167 240,240.167 241,241.5C 249.58,239.637 258.08,237.304 266.5,234.5 Z"/></g>
<g><path style="opacity:1" fill="#9ebc78" d="M 287.5,227.5 C 295.234,230.398 302.067,234.731 308,240.5C 308.49,241.793 308.657,243.127 308.5,244.5C 308.5,246.167 308.5,247.833 308.5,249.5C 308.167,249.5 307.833,249.5 307.5,249.5C 307.007,239.422 301.674,234.089 291.5,233.5C 290.287,233.253 289.62,232.586 289.5,231.5C 288.194,230.533 287.527,229.199 287.5,227.5 Z"/></g>
<g><path style="opacity:0.31" fill="#ece2ba" d="M 169.5,243.5 C 169.068,244.71 168.401,245.71 167.5,246.5C 167.285,244.821 167.952,243.821 169.5,243.5 Z"/></g>
<g><path style="opacity:0.867" fill="#b3ccaf" d="M 308.5,244.5 C 309.525,245.374 310.192,246.541 310.5,248C 309.767,250.72 308.767,253.22 307.5,255.5C 307.517,253.435 307.85,251.435 308.5,249.5C 308.5,247.833 308.5,246.167 308.5,244.5 Z"/></g>
<g><path style="opacity:1" fill="#fbf0bd" d="M 145.5,223.5 C 144.518,226.763 143.851,230.097 143.5,233.5C 143.5,234.167 143.5,234.833 143.5,235.5C 142.655,236.671 141.989,238.005 141.5,239.5C 138.42,251.923 137.92,264.59 140,277.5C 140.915,278.328 141.581,279.328 142,280.5C 142.548,284.17 143.048,287.837 143.5,291.5C 138.822,288.485 134.822,284.819 131.5,280.5C 130.559,278.95 129.893,277.284 129.5,275.5C 128.896,263.326 127.896,251.326 126.5,239.5C 126.5,237.833 126.5,236.167 126.5,234.5C 127.15,234.804 127.817,235.137 128.5,235.5C 129.194,242.757 130.194,249.924 131.5,257C 131.167,258.667 130.833,260.333 130.5,262C 133.076,264.651 134.409,267.818 134.5,271.5C 135.5,271.5 136.5,271.5 137.5,271.5C 137.313,266.155 136.98,260.822 136.5,255.5C 135.5,255.5 134.5,255.5 133.5,255.5C 133.335,246.622 134.001,237.955 135.5,229.5C 135.721,232.097 136.221,232.097 137,229.5C 137.176,232.882 137.676,236.215 138.5,239.5C 140.588,233.959 142.922,228.626 145.5,223.5 Z"/></g>
<g><path style="opacity:1" fill="#62b0a3" d="M 327.5,226.5 C 328.496,226.414 329.329,226.748 330,227.5C 335.403,235.971 337.57,245.304 336.5,255.5C 335.5,256.167 334.5,256.833 333.5,257.5C 336.144,246.523 334.144,236.19 327.5,226.5 Z"/></g>
<g><path style="opacity:1" fill="#d7c341" d="M 125.5,186.5 C 124.324,192.983 124.324,199.317 125.5,205.5C 125.172,217.012 125.505,228.346 126.5,239.5C 126.5,250.167 126.5,260.833 126.5,271.5C 125.5,271.5 124.5,271.5 123.5,271.5C 123.5,245.5 123.5,219.5 123.5,193.5C 123.41,190.848 124.076,188.515 125.5,186.5 Z"/></g>
<g><path style="opacity:1" fill="#faeda4" d="M 126.5,239.5 C 127.896,251.326 128.896,263.326 129.5,275.5C 128.833,275.5 128.167,275.5 127.5,275.5C 127.167,274.167 126.833,272.833 126.5,271.5C 126.5,260.833 126.5,250.167 126.5,239.5 Z"/></g>
<g><path style="opacity:1" fill="#a7b95d" d="M 190.5,297.5 C 191.58,305.09 194.58,311.757 199.5,317.5C 197.883,316.962 196.216,316.629 194.5,316.5C 192.703,311.556 190.87,306.556 189,301.5C 188.833,282.158 188.333,262.825 187.5,243.5C 186.583,244.127 185.583,244.461 184.5,244.5C 185.793,242.704 187.293,241.037 189,239.5C 189.168,259.004 189.668,278.338 190.5,297.5 Z"/></g>
<g><path style="opacity:1" fill="#58bca7" d="M 372.5,193.5 C 375.401,207.704 377.067,222.037 377.5,236.5C 377.177,243.022 377.51,249.355 378.5,255.5C 377.552,260.054 376.052,264.387 374,268.5C 373.5,258.839 373.334,249.172 373.5,239.5C 373.541,224.156 373.208,208.823 372.5,193.5 Z"/></g>
<g><path style="opacity:0.886" fill="#dfce72" d="M 181.5,245.5 C 181.5,245.833 181.5,246.167 181.5,246.5C 178.527,248.806 175.86,251.473 173.5,254.5C 170.767,257.239 167.767,259.573 164.5,261.5C 169.537,255.462 175.203,250.129 181.5,245.5 Z"/></g>
<g><path style="opacity:1" fill="#d8c31e" d="M 279.5,231.5 C 279.5,232.167 279.5,232.833 279.5,233.5C 271.321,239.512 264.321,246.679 258.5,255C 257.552,255.483 256.552,255.649 255.5,255.5C 255.762,256.978 255.429,258.311 254.5,259.5C 248.642,264.167 243.142,269.167 238,274.5C 233.319,276.185 228.485,276.852 223.5,276.5C 223.727,274.067 222.727,272.401 220.5,271.5C 220.5,270.5 220.5,269.5 220.5,268.5C 221.954,265.592 223.454,262.592 225,259.5C 228.49,254.155 232.657,249.488 237.5,245.5C 239.932,244.25 242.266,242.75 244.5,241C 245.635,240.251 246.635,240.417 247.5,241.5C 244.903,246.791 242.403,252.124 240,257.5C 239.251,258.635 239.417,259.635 240.5,260.5C 249.609,252.29 258.275,243.623 266.5,234.5C 270.718,233.029 275.051,232.029 279.5,231.5 Z"/></g>
<g><path style="opacity:1" fill="#b4be35" d="M 279.5,233.5 C 278.272,235.01 278.272,236.51 279.5,238C 278.376,238.249 277.376,238.749 276.5,239.5C 283.13,241.856 283.13,244.023 276.5,246C 272.861,250.745 268.861,255.245 264.5,259.5C 262.88,263.759 260.88,267.759 258.5,271.5C 253.417,275.402 248.417,279.569 243.5,284C 235.413,289.761 226.746,290.928 217.5,287.5C 217.5,284.833 217.5,282.167 217.5,279.5C 218.918,276.98 219.918,274.313 220.5,271.5C 222.727,272.401 223.727,274.067 223.5,276.5C 228.485,276.852 233.319,276.185 238,274.5C 243.142,269.167 248.642,264.167 254.5,259.5C 255.429,258.311 255.762,256.978 255.5,255.5C 256.552,255.649 257.552,255.483 258.5,255C 264.321,246.679 271.321,239.512 279.5,233.5 Z"/></g>
<g><path style="opacity:1" fill="#d4c222" d="M 181.5,246.5 C 181.509,259.982 181.675,273.648 182,287.5C 183.198,299.43 187.698,309.93 195.5,319C 194.207,319.49 192.873,319.657 191.5,319.5C 177.725,304.682 171.558,287.015 173,266.5C 171.546,269.071 170.38,271.738 169.5,274.5C 168.272,275.306 167.272,276.306 166.5,277.5C 168.505,271.849 170.672,266.182 173,260.5C 174.147,259.542 175.147,259.875 176,261.5C 176.236,259.236 176.736,257.069 177.5,255C 176.436,253.489 175.103,253.323 173.5,254.5C 175.86,251.473 178.527,248.806 181.5,246.5 Z"/></g>
<g><path style="opacity:0.697" fill="#b6c088" d="M 190.5,297.5 C 189.668,278.338 189.168,259.004 189,239.5C 187.293,241.037 185.793,242.704 184.5,244.5C 183.609,245.11 182.609,245.443 181.5,245.5C 183.812,242.521 186.479,239.854 189.5,237.5C 190.5,257.489 190.833,277.489 190.5,297.5 Z"/></g>
<g><path style="opacity:1" fill="#dcce60" d="M 165.5,250.5 C 163.983,254.37 162.316,258.204 160.5,262C 160.667,262.5 160.833,263 161,263.5C 161.816,262.177 162.983,261.511 164.5,261.5C 162.39,264.619 159.723,266.952 156.5,268.5C 156.5,266.167 156.5,263.833 156.5,261.5C 159.095,259.575 160.761,256.909 161.5,253.5C 162.852,252.476 164.185,251.476 165.5,250.5 Z"/></g>
<g><path style="opacity:1" fill="#8dbf98" d="M 307.5,255.5 C 307.141,257.371 306.141,258.871 304.5,260C 297.766,264.366 290.766,268.199 283.5,271.5C 283.414,270.504 283.748,269.671 284.5,269C 287.971,267.431 291.305,265.597 294.5,263.5C 293.145,262.325 293.312,261.325 295,260.5C 296.356,261.38 297.856,261.714 299.5,261.5C 299.67,260.178 299.337,259.011 298.5,258C 300.107,258.019 301.774,258.185 303.5,258.5C 303.5,257.5 303.5,256.5 303.5,255.5C 304.833,255.5 306.167,255.5 307.5,255.5 Z"/></g>
<g><path style="opacity:1" fill="#92d4c4" d="M 344.5,223.5 C 349.597,234.476 352.097,246.143 352,258.5C 352.333,259.167 352.667,259.833 353,260.5C 353.972,258.695 355.139,257.028 356.5,255.5C 357.386,256.325 357.719,257.325 357.5,258.5C 355.33,265.019 353.33,271.685 351.5,278.5C 349.285,283.207 345.618,286.373 340.5,288C 337.381,292.067 333.715,295.567 329.5,298.5C 330.322,295.432 331.655,292.599 333.5,290C 333.333,289.5 333.167,289 333,288.5C 326.872,295.041 326.205,294.375 331,286.5C 330.932,284.658 331.099,282.991 331.5,281.5C 332.167,280.5 332.833,279.5 333.5,278.5C 336.188,276.868 338.688,274.868 341,272.5C 346.413,256.462 347.579,240.129 344.5,223.5 Z"/></g>
<g><path style="opacity:0.593" fill="#b5bf8d" d="M 215.5,206.5 C 215.5,206.833 215.5,207.167 215.5,207.5C 215.169,234.339 215.502,261.005 216.5,287.5C 217.787,290.406 218.787,293.406 219.5,296.5C 216.73,294.634 215.23,291.968 215,288.5C 214.17,260.997 214.336,233.664 215.5,206.5 Z"/></g>
<g><path style="opacity:1" fill="#e0e291" d="M 220.5,264.5 C 220.5,265.833 220.5,267.167 220.5,268.5C 220.5,269.5 220.5,270.5 220.5,271.5C 219.918,274.313 218.918,276.98 217.5,279.5C 217.5,275.5 217.5,271.5 217.5,267.5C 218.222,267.918 218.722,268.584 219,269.5C 219.49,268.207 219.657,266.873 219.5,265.5C 219.5,264.833 219.833,264.5 220.5,264.5 Z"/></g>
<g><path style="opacity:1" fill="#e0c31a" d="M 153.5,221.5 C 153.5,225.5 153.5,229.5 153.5,233.5C 152.5,233.5 151.5,233.5 150.5,233.5C 147.593,248.659 147.093,263.992 149,279.5C 149.667,280.167 150.333,280.833 151,281.5C 152.569,280.062 154.069,278.562 155.5,277C 154.101,275.938 153.101,274.605 152.5,273C 154.08,270.121 154.58,266.954 154,263.5C 154.417,262.244 155.25,261.577 156.5,261.5C 156.5,263.833 156.5,266.167 156.5,268.5C 159.723,266.952 162.39,264.619 164.5,261.5C 167.767,259.573 170.767,257.239 173.5,254.5C 175.103,253.323 176.436,253.489 177.5,255C 176.736,257.069 176.236,259.236 176,261.5C 175.147,259.875 174.147,259.542 173,260.5C 170.672,266.182 168.505,271.849 166.5,277.5C 162.169,283.161 156.502,285.161 149.5,283.5C 148.05,282.15 147.383,280.484 147.5,278.5C 145.426,260.572 146.593,242.906 151,225.5C 151.608,223.934 152.442,222.6 153.5,221.5 Z"/></g>
<g><path style="opacity:1" fill="#c1c355" d="M 217.5,267.5 C 217.5,271.5 217.5,275.5 217.5,279.5C 217.5,282.167 217.5,284.833 217.5,287.5C 217.167,287.5 216.833,287.5 216.5,287.5C 215.502,261.005 215.169,234.339 215.5,207.5C 216.117,207.389 216.617,207.056 217,206.5C 217.5,226.831 217.667,247.164 217.5,267.5 Z"/></g>
<g><path style="opacity:0.992" fill="#94c2a0" d="M 283.5,271.5 C 275.003,277.586 266.003,282.919 256.5,287.5C 256.586,286.504 256.252,285.671 255.5,285C 264.725,280.274 274.059,275.774 283.5,271.5 Z"/></g>
<g><path style="opacity:1" fill="#a9bb50" d="M 123.5,271.5 C 124.5,271.5 125.5,271.5 126.5,271.5C 126.833,272.833 127.167,274.167 127.5,275.5C 127.5,278.833 127.5,282.167 127.5,285.5C 126.167,284.833 124.833,284.167 123.5,283.5C 123.5,279.5 123.5,275.5 123.5,271.5 Z"/></g>
<g><path style="opacity:1" fill="#66b16d" d="M 307.5,249.5 C 307.833,249.5 308.167,249.5 308.5,249.5C 307.85,251.435 307.517,253.435 307.5,255.5C 306.167,255.5 304.833,255.5 303.5,255.5C 303.5,256.5 303.5,257.5 303.5,258.5C 301.774,258.185 300.107,258.019 298.5,258C 299.337,259.011 299.67,260.178 299.5,261.5C 297.856,261.714 296.356,261.38 295,260.5C 293.312,261.325 293.145,262.325 294.5,263.5C 291.305,265.597 287.971,267.431 284.5,269C 283.748,269.671 283.414,270.504 283.5,271.5C 274.059,275.774 264.725,280.274 255.5,285C 256.252,285.671 256.586,286.504 256.5,287.5C 253.069,287.045 250.736,288.379 249.5,291.5C 247.139,291.674 244.806,292.007 242.5,292.5C 242.5,293.5 242.5,294.5 242.5,295.5C 238.29,297.045 233.957,298.045 229.5,298.5C 240.485,293.477 250.485,286.643 259.5,278C 261.608,277.64 263.608,276.973 265.5,276C 274.954,266.447 285.621,258.614 297.5,252.5C 300.809,251.285 304.142,250.285 307.5,249.5 Z"/></g>
<g><path style="opacity:1" fill="#f2db68" d="M 143.5,235.5 C 142.125,250.189 143.458,264.523 147.5,278.5C 147.383,280.484 148.05,282.15 149.5,283.5C 156.502,285.161 162.169,283.161 166.5,277.5C 167.272,276.306 168.272,275.306 169.5,274.5C 170.227,279.976 169.227,284.976 166.5,289.5C 168.027,294.887 170.36,299.887 173.5,304.5C 172.73,306.272 171.397,307.272 169.5,307.5C 167.823,306.813 166.156,306.146 164.5,305.5C 160.089,303.459 155.756,301.125 151.5,298.5C 151.5,297.833 151.5,297.167 151.5,296.5C 151.012,290.182 148.512,284.848 144,280.5C 142.25,277.754 141.25,274.754 141,271.5C 140.321,260.814 140.488,250.148 141.5,239.5C 141.989,238.005 142.655,236.671 143.5,235.5 Z"/></g>
<g><path style="opacity:1" fill="#faeba5" d="M 141.5,239.5 C 140.488,250.148 140.321,260.814 141,271.5C 141.25,274.754 142.25,277.754 144,280.5C 148.512,284.848 151.012,290.182 151.5,296.5C 150.041,296.567 148.708,296.234 147.5,295.5C 146.375,294 145.041,292.667 143.5,291.5C 143.048,287.837 142.548,284.17 142,280.5C 141.581,279.328 140.915,278.328 140,277.5C 137.92,264.59 138.42,251.923 141.5,239.5 Z"/></g>
<g><path style="opacity:1" fill="#2aa68a" d="M 336.5,255.5 C 336.554,262.576 335.887,269.576 334.5,276.5C 334.167,277.167 333.833,277.833 333.5,278.5C 332.833,279.5 332.167,280.5 331.5,281.5C 330.508,281.328 329.842,281.662 329.5,282.5C 319.639,287.682 309.805,293.016 300,298.5C 293.182,301.271 286.349,303.938 279.5,306.5C 278.737,305.732 277.737,305.232 276.5,305C 280.969,299.416 286.635,296.75 293.5,297C 292.833,296.333 292.167,295.667 291.5,295C 293.192,293.693 294.525,292.193 295.5,290.5C 304.601,284.441 313.934,278.608 323.5,273C 328.27,268.736 331.603,263.569 333.5,257.5C 334.5,256.833 335.5,256.167 336.5,255.5 Z"/></g>
<g><path style="opacity:1" fill="#aaddd1" d="M 363.5,265.5 C 363.484,272.781 361.817,279.615 358.5,286C 358.836,287.03 359.503,287.53 360.5,287.5C 358.93,289.947 356.93,291.947 354.5,293.5C 345.743,299.717 336.077,303.717 325.5,305.5C 326.468,302.895 327.802,300.561 329.5,298.5C 333.715,295.567 337.381,292.067 340.5,288C 345.618,286.373 349.285,283.207 351.5,278.5C 351.335,282.182 351.501,285.848 352,289.5C 353.726,287.772 355.059,285.772 356,283.5C 358.031,277.224 360.531,271.224 363.5,265.5 Z"/></g>
<g><path style="opacity:1" fill="#b2cc87" d="M 127.5,275.5 C 128.167,275.5 128.833,275.5 129.5,275.5C 129.893,277.284 130.559,278.95 131.5,280.5C 132.38,285.475 134.047,290.141 136.5,294.5C 136.167,294.5 135.833,294.5 135.5,294.5C 132.859,292.196 130.192,289.862 127.5,287.5C 127.5,286.833 127.5,286.167 127.5,285.5C 127.5,282.167 127.5,278.833 127.5,275.5 Z"/></g>
<g><path style="opacity:0.937" fill="#a0c8ad" d="M 256.5,287.5 C 254.337,289.083 252.004,290.416 249.5,291.5C 250.736,288.379 253.069,287.045 256.5,287.5 Z"/></g>
<g><path style="opacity:1" fill="#97c5a0" d="M 249.5,291.5 C 247.337,293.083 245.004,294.416 242.5,295.5C 242.5,294.5 242.5,293.5 242.5,292.5C 244.806,292.007 247.139,291.674 249.5,291.5 Z"/></g>
<g><path style="opacity:1" fill="#a7dccf" d="M 367.5,306.5 C 364.446,309.67 360.78,311.503 356.5,312C 358.646,307.904 360.979,303.904 363.5,300C 364.672,294.888 366.005,289.888 367.5,285C 367.167,284.5 366.833,284 366.5,283.5C 365.148,284.524 363.815,285.524 362.5,286.5C 366.46,281.946 369.96,276.946 373,271.5C 373.664,278.541 373.331,285.541 372,292.5C 371.266,297.301 369.433,301.634 366.5,305.5C 366.624,306.107 366.957,306.44 367.5,306.5 Z"/></g>
<g><path style="opacity:1" fill="#8bc481" d="M 127.5,287.5 C 130.192,289.862 132.859,292.196 135.5,294.5C 137.322,297.107 136.822,299.107 134,300.5C 133.236,296.901 131.07,294.901 127.5,294.5C 127.5,292.167 127.5,289.833 127.5,287.5 Z"/></g>
<g><path style="opacity:1" fill="#bcdbb1" d="M 131.5,280.5 C 134.822,284.819 138.822,288.485 143.5,291.5C 145.041,292.667 146.375,294 147.5,295.5C 149.671,298.509 151.338,301.842 152.5,305.5C 147.167,301.833 141.833,298.167 136.5,294.5C 134.047,290.141 132.38,285.475 131.5,280.5 Z"/></g>
<g><path style="opacity:1" fill="#edda6f" d="M 191.5,319.5 C 183.185,315.822 174.852,311.989 166.5,308C 165.619,307.292 164.953,306.458 164.5,305.5C 166.156,306.146 167.823,306.813 169.5,307.5C 171.397,307.272 172.73,306.272 173.5,304.5C 170.36,299.887 168.027,294.887 166.5,289.5C 169.227,284.976 170.227,279.976 169.5,274.5C 170.38,271.738 171.546,269.071 173,266.5C 171.558,287.015 177.725,304.682 191.5,319.5 Z"/></g>
<g><path style="opacity:1" fill="#4bb79d" d="M 329.5,282.5 C 325.617,287.872 320.617,292.039 314.5,295C 306.91,298.631 299.243,301.965 291.5,305C 287.246,306.314 282.913,307.147 278.5,307.5C 278.5,306.833 278.833,306.5 279.5,306.5C 286.349,303.938 293.182,301.271 300,298.5C 309.805,293.016 319.639,287.682 329.5,282.5 Z"/></g>
<g><path style="opacity:0.396" fill="#cdd9b5" d="M 219.5,296.5 C 221.027,296.427 222.027,297.094 222.5,298.5C 220.973,298.573 219.973,297.906 219.5,296.5 Z"/></g>
<g><path style="opacity:1" fill="#9ec3a0" d="M 242.5,295.5 C 236.394,301.374 229.727,302.374 222.5,298.5C 224.833,298.5 227.167,298.5 229.5,298.5C 233.957,298.045 238.29,297.045 242.5,295.5 Z"/></g>
<g><path style="opacity:1" fill="#a4b940" d="M 199.5,317.5 C 200.72,319.282 201.386,321.282 201.5,323.5C 200.5,323.5 199.5,323.5 198.5,323.5C 197.833,323.5 197.167,323.5 196.5,323.5C 194.833,322.167 193.167,320.833 191.5,319.5C 192.873,319.657 194.207,319.49 195.5,319C 187.698,309.93 183.198,299.43 182,287.5C 181.675,273.648 181.509,259.982 181.5,246.5C 181.5,246.167 181.5,245.833 181.5,245.5C 182.609,245.443 183.609,245.11 184.5,244.5C 185.583,244.461 186.583,244.127 187.5,243.5C 188.333,262.825 188.833,282.158 189,301.5C 190.87,306.556 192.703,311.556 194.5,316.5C 196.216,316.629 197.883,316.962 199.5,317.5 Z"/></g>
<g><path style="opacity:1" fill="#45a892" d="M 295.5,290.5 C 294.525,292.193 293.192,293.693 291.5,295C 292.167,295.667 292.833,296.333 293.5,297C 286.635,296.75 280.969,299.416 276.5,305C 277.737,305.232 278.737,305.732 279.5,306.5C 278.833,306.5 278.5,306.833 278.5,307.5C 275.454,308.062 272.454,308.729 269.5,309.5C 268.127,309.657 266.793,309.49 265.5,309C 264.167,308.333 264.167,307.667 265.5,307C 275.394,301.222 285.394,295.722 295.5,290.5 Z"/></g>
<g><path style="opacity:1" fill="#bde5dd" d="M 354.5,293.5 C 355.559,295.726 355.392,298.059 354,300.5C 351.895,305.21 349.395,309.71 346.5,314C 338.507,314.5 330.507,314.666 322.5,314.5C 318.958,314.38 315.458,314.714 312,315.5C 302.908,313.718 293.741,312.385 284.5,311.5C 284.167,311.5 283.833,311.5 283.5,311.5C 295.141,309.74 307.141,308.573 319.5,308C 321.811,307.764 323.811,306.931 325.5,305.5C 336.077,303.717 345.743,299.717 354.5,293.5 Z"/></g>
<g><path style="opacity:1" fill="#b5e2d7" d="M 367.5,306.5 C 371.197,303.386 372.363,304.386 371,309.5C 366.055,316.722 359.222,320.389 350.5,320.5C 351.153,319.193 351.82,317.86 352.5,316.5C 344.103,315.756 335.769,316.423 327.5,318.5C 328.193,319.518 328.859,320.518 329.5,321.5C 329.167,321.5 328.833,321.5 328.5,321.5C 328.167,321.5 327.833,321.5 327.5,321.5C 327.389,320.883 327.056,320.383 326.5,320C 323.086,319.703 319.753,319.036 316.5,318C 319.553,317.821 322.553,317.321 325.5,316.5C 324.398,315.824 323.398,315.158 322.5,314.5C 330.507,314.666 338.507,314.5 346.5,314C 349.395,309.71 351.895,305.21 354,300.5C 355.392,298.059 355.559,295.726 354.5,293.5C 356.93,291.947 358.93,289.947 360.5,287.5C 361.167,287.167 361.833,286.833 362.5,286.5C 363.815,285.524 365.148,284.524 366.5,283.5C 366.833,284 367.167,284.5 367.5,285C 366.005,289.888 364.672,294.888 363.5,300C 360.979,303.904 358.646,307.904 356.5,312C 360.78,311.503 364.446,309.67 367.5,306.5 Z"/></g>
<g><path style="opacity:1" fill="#bad38f" d="M 147.5,295.5 C 148.708,296.234 150.041,296.567 151.5,296.5C 151.5,297.167 151.5,297.833 151.5,298.5C 153.5,301.833 155.5,305.167 157.5,308.5C 155.589,307.925 153.922,306.925 152.5,305.5C 151.338,301.842 149.671,298.509 147.5,295.5 Z"/></g>
<g><path style="opacity:1" fill="#7acab6" d="M 331.5,281.5 C 331.099,282.991 330.932,284.658 331,286.5C 326.205,294.375 326.872,295.041 333,288.5C 333.167,289 333.333,289.5 333.5,290C 331.655,292.599 330.322,295.432 329.5,298.5C 327.802,300.561 326.468,302.895 325.5,305.5C 323.811,306.931 321.811,307.764 319.5,308C 307.141,308.573 295.141,309.74 283.5,311.5C 280.366,310.773 277.199,310.106 274,309.5C 272.93,309.528 272.097,309.861 271.5,310.5C 270.508,310.672 269.842,310.338 269.5,309.5C 272.454,308.729 275.454,308.062 278.5,307.5C 282.913,307.147 287.246,306.314 291.5,305C 299.243,301.965 306.91,298.631 314.5,295C 320.617,292.039 325.617,287.872 329.5,282.5C 329.842,281.662 330.508,281.328 331.5,281.5 Z"/></g>
<g><path style="opacity:1" fill="#7bb166" d="M 123.5,283.5 C 124.833,284.167 126.167,284.833 127.5,285.5C 127.5,286.167 127.5,286.833 127.5,287.5C 127.5,289.833 127.5,292.167 127.5,294.5C 127.368,297.57 127.701,300.57 128.5,303.5C 127.503,303.47 126.836,303.97 126.5,305C 128.227,308.276 128.894,311.776 128.5,315.5C 126.649,312.628 124.983,309.628 123.5,306.5C 123.065,304.297 123.065,302.297 123.5,300.5C 123.5,294.833 123.5,289.167 123.5,283.5 Z"/></g>
<g><path style="opacity:0.043" fill="#d2e2ad" d="M 123.5,306.5 C 124.983,309.628 126.649,312.628 128.5,315.5C 128.517,317.565 128.85,319.565 129.5,321.5C 125.966,317.254 123.966,312.254 123.5,306.5 Z"/></g>
<g><path style="opacity:0.986" fill="#86bfb2" d="M 271.5,310.5 C 272.097,309.861 272.93,309.528 274,309.5C 277.199,310.106 280.366,310.773 283.5,311.5C 283.833,311.5 284.167,311.5 284.5,311.5C 293.527,313.546 302.527,316.046 311.5,319C 310.552,319.483 309.552,319.649 308.5,319.5C 296.024,316.964 283.69,313.964 271.5,310.5 Z"/></g>
<g><path style="opacity:1" fill="#9cd9cc" d="M 284.5,311.5 C 293.741,312.385 302.908,313.718 312,315.5C 315.458,314.714 318.958,314.38 322.5,314.5C 323.398,315.158 324.398,315.824 325.5,316.5C 322.553,317.321 319.553,317.821 316.5,318C 319.753,319.036 323.086,319.703 326.5,320C 327.056,320.383 327.389,320.883 327.5,321.5C 323.4,321.476 319.4,320.809 315.5,319.5C 314.833,319.667 314.167,319.833 313.5,320C 314.737,320.232 315.737,320.732 316.5,321.5C 313.572,321.435 310.905,320.768 308.5,319.5C 309.552,319.649 310.552,319.483 311.5,319C 302.527,316.046 293.527,313.546 284.5,311.5 Z"/></g>
<g><path style="opacity:1" fill="#b8cc7a" d="M 151.5,298.5 C 155.756,301.125 160.089,303.459 164.5,305.5C 164.953,306.458 165.619,307.292 166.5,308C 174.852,311.989 183.185,315.822 191.5,319.5C 193.167,320.833 194.833,322.167 196.5,323.5C 182.736,320.157 169.736,315.157 157.5,308.5C 155.5,305.167 153.5,301.833 151.5,298.5 Z"/></g>
<g><path style="opacity:1" fill="#6db98c" d="M 128.5,303.5 C 136.746,309.219 145.413,314.386 154.5,319C 157.141,319.323 159.475,320.323 161.5,322C 163.473,322.495 165.473,322.662 167.5,322.5C 167.5,323.5 167.5,324.5 167.5,325.5C 166.167,325.5 164.833,325.5 163.5,325.5C 154.585,325.548 145.918,324.048 137.5,321C 136.257,319.846 135.257,318.512 134.5,317C 133.552,316.517 132.552,316.351 131.5,316.5C 131.5,319.167 131.5,321.833 131.5,324.5C 130.094,324.027 129.427,323.027 129.5,321.5C 128.85,319.565 128.517,317.565 128.5,315.5C 128.894,311.776 128.227,308.276 126.5,305C 126.836,303.97 127.503,303.47 128.5,303.5 Z"/></g>
<g><path style="opacity:1" fill="#caebe4" d="M 350.5,320.5 C 343.557,321.427 336.557,321.76 329.5,321.5C 328.859,320.518 328.193,319.518 327.5,318.5C 335.769,316.423 344.103,315.756 352.5,316.5C 351.82,317.86 351.153,319.193 350.5,320.5 Z"/></g>
<g><path style="opacity:1" fill="#8bc386" d="M 127.5,294.5 C 131.07,294.901 133.236,296.901 134,300.5C 136.822,299.107 137.322,297.107 135.5,294.5C 135.833,294.5 136.167,294.5 136.5,294.5C 141.833,298.167 147.167,301.833 152.5,305.5C 153.922,306.925 155.589,307.925 157.5,308.5C 169.736,315.157 182.736,320.157 196.5,323.5C 197.167,323.5 197.833,323.5 198.5,323.5C 199.234,324.708 199.567,326.041 199.5,327.5C 188.788,327.495 178.121,326.828 167.5,325.5C 167.5,324.5 167.5,323.5 167.5,322.5C 165.473,322.662 163.473,322.495 161.5,322C 159.475,320.323 157.141,319.323 154.5,319C 145.413,314.386 136.746,309.219 128.5,303.5C 127.701,300.57 127.368,297.57 127.5,294.5 Z"/></g>
<g><path style="opacity:1" fill="#a8c07b" d="M 199.5,317.5 C 202.286,319.113 204.953,320.946 207.5,323C 209.025,324.009 210.692,324.509 212.5,324.5C 213.167,325.167 213.833,325.833 214.5,326.5C 213.5,326.5 212.5,326.5 211.5,326.5C 208.381,325.13 205.048,324.13 201.5,323.5C 201.386,321.282 200.72,319.282 199.5,317.5 Z"/></g>
<g><path style="opacity:0.067" fill="#ccfaf8" d="M 317.5,321.5 C 319.854,321.838 322.187,322.338 324.5,323C 322.866,323.494 321.199,323.66 319.5,323.5C 318.833,322.833 318.167,322.167 317.5,321.5 Z"/></g>
<g><path style="opacity:1" fill="#4ab09a" d="M 378.5,304.5 C 376.955,314.423 372.622,322.923 365.5,330C 342.972,344.096 320.306,357.929 297.5,371.5C 298.243,368.43 300.243,366.764 303.5,366.5C 303.5,365.5 303.5,364.5 303.5,363.5C 307.126,364.139 308.959,362.806 309,359.5C 308.667,359.833 308.333,360.167 308,360.5C 307.517,359.552 307.351,358.552 307.5,357.5C 310.493,358.135 313.493,358.301 316.5,358C 317.729,356.471 319.229,355.304 321,354.5C 321.781,353.056 321.614,351.723 320.5,350.5C 315.677,352.95 310.677,354.616 305.5,355.5C 313.68,350.696 322.347,346.529 331.5,343C 339.969,337.366 348.302,331.532 356.5,325.5C 357.779,323.877 359.113,322.21 360.5,320.5C 365.05,318.454 368.883,315.454 372,311.5C 376.674,302.479 378.674,292.812 378,282.5C 378.5,289.826 378.666,297.159 378.5,304.5 Z"/></g>
<g><path style="opacity:1" fill="#4eaf85" d="M 163.5,325.5 C 163.389,326.117 163.056,326.617 162.5,327C 177.141,328.22 191.808,328.72 206.5,328.5C 191.009,329.496 175.342,329.83 159.5,329.5C 151.027,329.901 142.694,329.234 134.5,327.5C 133.167,326.833 132.167,325.833 131.5,324.5C 131.5,321.833 131.5,319.167 131.5,316.5C 132.552,316.351 133.552,316.517 134.5,317C 135.257,318.512 136.257,319.846 137.5,321C 145.918,324.048 154.585,325.548 163.5,325.5 Z"/></g>
<g><path style="opacity:0.254" fill="#bbe1d4" d="M 212.5,324.5 C 224.838,325.028 237.171,325.362 249.5,325.5C 240.833,326.167 232.167,326.833 223.5,327.5C 220.518,327.037 217.518,326.704 214.5,326.5C 213.833,325.833 213.167,325.167 212.5,324.5 Z"/></g>
<g><path style="opacity:1" fill="#6bb370" d="M 198.5,323.5 C 199.5,323.5 200.5,323.5 201.5,323.5C 205.048,324.13 208.381,325.13 211.5,326.5C 209.833,327.167 208.167,327.833 206.5,328.5C 191.808,328.72 177.141,328.22 162.5,327C 163.056,326.617 163.389,326.117 163.5,325.5C 164.833,325.5 166.167,325.5 167.5,325.5C 178.121,326.828 188.788,327.495 199.5,327.5C 199.567,326.041 199.234,324.708 198.5,323.5 Z"/></g>
<g><path style="opacity:1" fill="#49a596" d="M 295.5,324.5 C 299.5,324.5 303.5,324.5 307.5,324.5C 283.767,325.871 259.933,327.205 236,328.5C 231.653,328.499 227.486,328.166 223.5,327.5C 232.167,326.833 240.833,326.167 249.5,325.5C 262.872,325.428 276.205,324.761 289.5,323.5C 291.453,324.156 293.453,324.489 295.5,324.5 Z"/></g>
<g><path style="opacity:1" fill="#29a792" d="M 307.5,324.5 C 312.511,324.334 317.511,324.501 322.5,325C 317.19,328.106 311.523,330.439 305.5,332C 295.522,333.165 285.522,333.998 275.5,334.5C 243.147,335.964 210.814,335.631 178.5,333.5C 173.678,332.601 168.678,331.934 163.5,331.5C 161.667,331.415 160.334,330.748 159.5,329.5C 175.342,329.83 191.009,329.496 206.5,328.5C 208.167,327.833 209.833,327.167 211.5,326.5C 212.5,326.5 213.5,326.5 214.5,326.5C 217.518,326.704 220.518,327.037 223.5,327.5C 227.486,328.166 231.653,328.499 236,328.5C 259.933,327.205 283.767,325.871 307.5,324.5 Z"/></g>
<g><path style="opacity:1" fill="#4ab5a6" d="M 134.5,327.5 C 142.694,329.234 151.027,329.901 159.5,329.5C 160.334,330.748 161.667,331.415 163.5,331.5C 168.678,331.934 173.678,332.601 178.5,333.5C 172.641,333.769 166.807,333.769 161,333.5C 159.052,334.109 157.218,334.776 155.5,335.5C 155.565,335.938 155.399,336.272 155,336.5C 152.985,335.158 150.818,334.658 148.5,335C 151.938,335.92 154.938,337.587 157.5,340C 155.203,340.018 152.869,339.851 150.5,339.5C 148.847,339.34 147.514,338.674 146.5,337.5C 146.027,336.094 145.027,335.427 143.5,335.5C 139.469,333.986 136.469,331.319 134.5,327.5 Z"/></g>
<g><path style="opacity:1" fill="#64bfaa" d="M 327.5,321.5 C 327.833,321.5 328.167,321.5 328.5,321.5C 329.152,322.725 330.319,323.392 332,323.5C 337.813,322.501 343.646,322.335 349.5,323C 336.264,326.209 322.931,329.209 309.5,332C 307.934,332.608 306.6,333.442 305.5,334.5C 282.335,340.747 258.668,344.081 234.5,344.5C 248.35,341.996 262.017,338.663 275.5,334.5C 285.522,333.998 295.522,333.165 305.5,332C 311.523,330.439 317.19,328.106 322.5,325C 317.511,324.501 312.511,324.334 307.5,324.5C 303.5,324.5 299.5,324.5 295.5,324.5C 303.378,323.176 311.378,322.843 319.5,323.5C 321.199,323.66 322.866,323.494 324.5,323C 322.187,322.338 319.854,321.838 317.5,321.5C 317.167,321.5 316.833,321.5 316.5,321.5C 315.737,320.732 314.737,320.232 313.5,320C 314.167,319.833 314.833,319.667 315.5,319.5C 319.4,320.809 323.4,321.476 327.5,321.5 Z"/></g>
<g><path style="opacity:1" fill="#46b6a0" d="M 178.5,333.5 C 210.814,335.631 243.147,335.964 275.5,334.5C 262.017,338.663 248.35,341.996 234.5,344.5C 231.833,344.5 229.167,344.5 226.5,344.5C 202.415,344.071 178.748,341.071 155.5,335.5C 157.218,334.776 159.052,334.109 161,333.5C 166.807,333.769 172.641,333.769 178.5,333.5 Z"/></g>
<g><path style="opacity:0.141" fill="#cdebe6" d="M 143.5,335.5 C 145.027,335.427 146.027,336.094 146.5,337.5C 144.973,337.573 143.973,336.906 143.5,335.5 Z"/></g>
<g><path style="opacity:1" fill="#60bda8" d="M 155.5,335.5 C 178.748,341.071 202.415,344.071 226.5,344.5C 213.387,346.611 200.054,347.945 186.5,348.5C 182.121,347.8 178.121,346.133 174.5,343.5C 174.167,343.667 173.833,343.833 173.5,344C 185.168,352.999 197.835,360.166 211.5,365.5C 209.304,365.41 207.137,365.077 205,364.5C 202.175,364.973 201.842,366.306 204,368.5C 204.414,368.043 204.914,367.709 205.5,367.5C 207.833,368.667 210.167,369.833 212.5,371C 213.711,372.113 213.711,373.28 212.5,374.5C 214.007,375.739 215.174,375.405 216,373.5C 216.399,373.728 216.565,374.062 216.5,374.5C 217.933,375.833 219.267,377.333 220.5,379C 224.515,379.565 226.849,381.398 227.5,384.5C 201.333,370.254 175.666,355.254 150.5,339.5C 152.869,339.851 155.203,340.018 157.5,340C 154.938,337.587 151.938,335.92 148.5,335C 150.818,334.658 152.985,335.158 155,336.5C 155.399,336.272 155.565,335.938 155.5,335.5 Z"/></g>
<g><path style="opacity:1" fill="#74c8b4" d="M 305.5,334.5 C 303.129,335.991 300.462,336.991 297.5,337.5C 295.599,340.405 293.099,341.405 290,340.5C 284.512,342.121 279.012,343.788 273.5,345.5C 259.315,352.369 244.315,356.369 228.5,357.5C 219.383,357.202 210.383,356.036 201.5,354C 196.228,352.61 191.228,350.777 186.5,348.5C 200.054,347.945 213.387,346.611 226.5,344.5C 229.167,344.5 231.833,344.5 234.5,344.5C 258.668,344.081 282.335,340.747 305.5,334.5 Z"/></g>
<g><path style="opacity:1" fill="#aaded2" d="M 356.5,325.5 C 348.302,331.532 339.969,337.366 331.5,343C 322.347,346.529 313.68,350.696 305.5,355.5C 295.721,360.056 285.721,364.056 275.5,367.5C 258.036,372.784 240.703,372.784 223.5,367.5C 221.889,365.905 219.889,364.739 217.5,364C 223.155,364.198 228.821,364.198 234.5,364C 234.957,363.586 235.291,363.086 235.5,362.5C 234.271,361.719 232.938,361.219 231.5,361C 236.823,360.501 242.156,360.334 247.5,360.5C 243.516,360.963 239.85,362.463 236.5,365C 232.713,365.16 229.046,365.826 225.5,367C 229.623,368.036 233.79,368.87 238,369.5C 239.261,369.241 240.261,368.574 241,367.5C 242.062,368.097 243.228,368.43 244.5,368.5C 249.149,367.85 253.816,367.35 258.5,367C 262.649,365.263 266.983,364.263 271.5,364C 276.249,362.272 280.916,360.439 285.5,358.5C 290.393,360.127 294.06,358.627 296.5,354C 299.038,352.369 301.705,351.036 304.5,350C 303.095,348.731 301.429,348.231 299.5,348.5C 313.086,344.186 326.086,338.52 338.5,331.5C 344.614,329.527 350.448,326.861 356,323.5C 356.464,324.094 356.631,324.761 356.5,325.5 Z"/></g>
<g><path style="opacity:1" fill="#94d2c4" d="M 338.5,331.5 C 326.086,338.52 313.086,344.186 299.5,348.5C 288.084,351.533 276.751,354.533 265.5,357.5C 257.846,358.07 250.179,358.404 242.5,358.5C 251.928,356.162 261.595,354.328 271.5,353C 278.633,350.04 285.967,347.707 293.5,346C 295.601,343.23 298.268,341.23 301.5,340C 306.53,339.889 310.53,337.889 313.5,334C 319.027,332.901 324.36,331.234 329.5,329C 333.071,328.141 336.071,328.974 338.5,331.5 Z"/></g>
<g><path style="opacity:1" fill="#b7e2d8" d="M 299.5,348.5 C 301.429,348.231 303.095,348.731 304.5,350C 301.705,351.036 299.038,352.369 296.5,354C 294.06,358.627 290.393,360.127 285.5,358.5C 280.916,360.439 276.249,362.272 271.5,364C 266.983,364.263 262.649,365.263 258.5,367C 253.816,367.35 249.149,367.85 244.5,368.5C 243.228,368.43 242.062,368.097 241,367.5C 240.261,368.574 239.261,369.241 238,369.5C 233.79,368.87 229.623,368.036 225.5,367C 229.046,365.826 232.713,365.16 236.5,365C 239.85,362.463 243.516,360.963 247.5,360.5C 250.78,359.247 254.114,359.247 257.5,360.5C 260.276,359.485 262.943,358.485 265.5,357.5C 276.751,354.533 288.084,351.533 299.5,348.5 Z"/></g>
<g><path style="opacity:1" fill="#a5dccf" d="M 186.5,348.5 C 191.228,350.777 196.228,352.61 201.5,354C 210.383,356.036 219.383,357.202 228.5,357.5C 232.97,358.486 237.637,358.819 242.5,358.5C 250.179,358.404 257.846,358.07 265.5,357.5C 262.943,358.485 260.276,359.485 257.5,360.5C 254.114,359.247 250.78,359.247 247.5,360.5C 242.156,360.334 236.823,360.501 231.5,361C 232.938,361.219 234.271,361.719 235.5,362.5C 235.291,363.086 234.957,363.586 234.5,364C 228.821,364.198 223.155,364.198 217.5,364C 219.889,364.739 221.889,365.905 223.5,367.5C 219.5,366.833 215.5,366.167 211.5,365.5C 197.835,360.166 185.168,352.999 173.5,344C 173.833,343.833 174.167,343.667 174.5,343.5C 178.121,346.133 182.121,347.8 186.5,348.5 Z"/></g>
<g><path style="opacity:1" fill="#49b59d" d="M 297.5,371.5 C 290.167,375.833 282.833,380.167 275.5,384.5C 275.5,383.5 275.5,382.5 275.5,381.5C 270.332,383.274 264.999,384.774 259.5,386C 251.142,386.454 242.809,386.454 234.5,386C 235.252,386.671 235.586,387.504 235.5,388.5C 232.455,387.721 229.789,386.387 227.5,384.5C 226.849,381.398 224.515,379.565 220.5,379C 219.267,377.333 217.933,375.833 216.5,374.5C 224.036,376.847 231.703,379.013 239.5,381C 243.833,381.667 248.167,381.667 252.5,381C 262.302,377.926 271.969,374.593 281.5,371C 288.628,366.892 295.962,363.059 303.5,359.5C 304.362,358.234 305.029,356.901 305.5,355.5C 310.677,354.616 315.677,352.95 320.5,350.5C 321.614,351.723 321.781,353.056 321,354.5C 319.229,355.304 317.729,356.471 316.5,358C 313.493,358.301 310.493,358.135 307.5,357.5C 307.351,358.552 307.517,359.552 308,360.5C 308.333,360.167 308.667,359.833 309,359.5C 308.959,362.806 307.126,364.139 303.5,363.5C 303.5,364.5 303.5,365.5 303.5,366.5C 300.243,366.764 298.243,368.43 297.5,371.5 Z"/></g>
<g><path style="opacity:1" fill="#61c0a9" d="M 305.5,355.5 C 305.029,356.901 304.362,358.234 303.5,359.5C 295.962,363.059 288.628,366.892 281.5,371C 271.969,374.593 262.302,377.926 252.5,381C 248.167,381.667 243.833,381.667 239.5,381C 231.703,379.013 224.036,376.847 216.5,374.5C 216.565,374.062 216.399,373.728 216,373.5C 215.174,375.405 214.007,375.739 212.5,374.5C 213.711,373.28 213.711,372.113 212.5,371C 210.167,369.833 207.833,368.667 205.5,367.5C 204.914,367.709 204.414,368.043 204,368.5C 201.842,366.306 202.175,364.973 205,364.5C 207.137,365.077 209.304,365.41 211.5,365.5C 226.014,373.812 241.68,376.978 258.5,375C 264.427,372.76 270.094,370.26 275.5,367.5C 285.721,364.056 295.721,360.056 305.5,355.5 Z"/></g>
<g><path style="opacity:1" fill="#75c7b3" d="M 211.5,365.5 C 215.5,366.167 219.5,366.833 223.5,367.5C 240.703,372.784 258.036,372.784 275.5,367.5C 270.094,370.26 264.427,372.76 258.5,375C 241.68,376.978 226.014,373.812 211.5,365.5 Z"/></g>
<g><path style="opacity:1" fill="#3da892" d="M 275.5,384.5 C 262.751,392.111 249.418,393.444 235.5,388.5C 235.586,387.504 235.252,386.671 234.5,386C 242.809,386.454 251.142,386.454 259.5,386C 264.999,384.774 270.332,383.274 275.5,381.5C 275.5,382.5 275.5,383.5 275.5,384.5 Z"/></g>
</svg>
